<svg xmlns="http://www.w3.org/2000/svg" width="202" height="202" fill="none"><circle cx="101" cy="101" r="101" fill="url(#a)" opacity=".2" transform="matrix(0 -1 -1 0 202 202)"/><path fill="#fff" d="M173.22 39.49c-.99-.05-1.99.08-2.93.4-1.4.61-2.76 3.89-3.74 9.03a62.83 62.83 0 0 0-1.09 13.5c.03.82.45 1.57 1.13 2.03 4.35 3.1 19.13-.7 20.7-1.11.75-1.43 7.55-14.8 4.2-18.4-2.95-3.2-12.84-5.45-18.27-5.45Z"/><path fill="#231F20" fill-rule="evenodd" d="M166.21 64.94c1.36.98 3.62 1.33 6.18 1.33 5.96 0 13.52-1.92 14.98-2.3l.22-.05a.32.32 0 0 0 .2-.16v-.01c.4-.75 8.04-15.12 4.17-19.26-3.88-4.15-18.3-6.76-21.93-5.2-3.63 1.55-5.57 16.15-5.2 23.16.03 1 .55 1.93 1.38 2.49Zm4.08-25.06a8.06 8.06 0 0 1 2.94-.4c5.42 0 15.31 2.27 18.26 5.45 3.35 3.6-3.45 16.98-4.2 18.4-1.57.43-16.35 4.22-20.7 1.12a2.54 2.54 0 0 1-1.13-2.02c-.12-4.53.25-9.06 1.1-13.51.97-5.14 2.33-8.42 3.73-9.04Z" clip-rule="evenodd"/><path fill="#fff" d="M131.44 147.09a30.77 30.77 0 0 0 18.29-25.76l-10.3-11.05-14.16 27.3"/><path fill="#231F20" d="M131.44 147.4a.32.32 0 0 1-.11-.61 30.7 30.7 0 0 0 18.07-25.35l-9.9-10.61-13.94 26.9a.32.32 0 0 1-.57-.3l14.16-27.3c.05-.09.14-.15.24-.16.1-.02.2.01.28.09l10.3 11.05c.06.07.1.16.09.25a31.34 31.34 0 0 1-18.62 26.05Z"/><path fill="#231F20" d="m163.36 163.96 31.15-.6-.42-39.17-45.75 1.65-6.37 38.12h21.4Z"/><path fill="#231F20" fill-rule="evenodd" d="M141.97 164.27h21.4l31.15-.62a.31.31 0 0 0 .3-.31l-.42-39.15a.3.3 0 0 0-.1-.22.34.34 0 0 0-.23-.1l-45.74 1.66a.3.3 0 0 0-.3.26l-6.36 38.12c-.02.1 0 .18.07.25a.3.3 0 0 0 .23.11Zm21.4-.62h-21.03l6.26-37.52 45.18-1.62.42 38.52-30.84.62Z" clip-rule="evenodd"/><path fill="#E7816B" d="M200.52 80.73c-2.79-3.78-9.46-5.78-13.95-6.5-4.33-.68-8.66 0-13-.36-3.98-.24-7.97.15-11.83 1.15-14.49 4-27.96 24.95-27.96 24.95l14.77.78s-2.15 15.43-8.3 49.24c25.66.91 55.53 3.46 55.53 3.46s.13-7.08.45-14.04c2.32-2.16 2.24-5.6 2.66-7.6.55-2.56-.56-30.44-.56-30.44l3.36-1.24s.05-17.77-1.17-19.4Z"/><path fill="#231F20" d="m166 80.34-11.26 73.94 13.44 1.34 15.3-75.44-17.48.16Z"/><path fill="#231F20" fill-rule="evenodd" d="M168.15 155.93h.03c.16 0 .28-.1.31-.25l15.28-75.43c.02-.1 0-.2-.06-.26a.3.3 0 0 0-.25-.12l-17.47.16a.31.31 0 0 0-.3.26l-11.26 73.94a.3.3 0 0 0 .06.24c.05.06.13.1.22.12l13.44 1.34Zm-.2-.64L155.13 154l11.17-73.36 16.8-.14-15.13 74.79Z" clip-rule="evenodd"/><path fill="#fff" d="m168 71.07-1.94 9.27s2.06 6.16 8.3 5.5a12.5 12.5 0 0 0 9.11-5.66l2.22-17.03s-4.16-3-1.54-12.53a30.3 30.3 0 0 1-16 .07S164 60.87 164.1 65.61c.1 4.74 3.9 5.46 3.9 5.46Z"/><path fill="#231F20" fill-rule="evenodd" d="M165.76 80.45c.1.27 2.11 5.77 7.7 5.77a12.66 12.66 0 0 0 10.3-5.87.3.3 0 0 0 .04-.12L186 63.19a.31.31 0 0 0-.13-.3c-.03-.03-3.95-2.97-1.42-12.19a.32.32 0 0 0-.4-.38 30.26 30.26 0 0 1-15.82.06.32.32 0 0 0-.38.2c-.17.41-4.18 10.29-4.08 15.07.11 4.14 2.89 5.36 3.84 5.66l-1.86 8.96a.3.3 0 0 0 0 .18Zm8.57 5.08c-5.6.58-7.66-4.48-7.93-5.22l1.9-9.15a.32.32 0 0 0-.04-.25.3.3 0 0 0-.2-.13h-.01c-.21-.04-3.54-.72-3.64-5.12-.08-4.14 3.16-12.55 3.89-14.44l.05-.12a31.5 31.5 0 0 0 15.34 0c-2.1 8.3.91 11.58 1.66 12.2l-2.19 16.78a12.3 12.3 0 0 1-8.83 5.45Z" clip-rule="evenodd"/><path fill="#fff" d="M182.19 62.38c.31-.8.88-1.49 1.62-1.94a7 7 0 0 1 2.26-.77 3 3 0 0 1 1.3-.07c.3.1.58.24.82.43a3.1 3.1 0 0 1 1.25 1.73c.08.58.03 1.18-.16 1.73-.16.63-.4 1.22-.72 1.78a4.82 4.82 0 0 1-6.67 1.64"/><path fill="#231F20" d="M184.44 67.94a5.2 5.2 0 0 1-2.7-.75.32.32 0 0 1 .1-.6c.07-.01.16 0 .23.05a4.55 4.55 0 0 0 6.23-1.53c.31-.54.54-1.1.69-1.7.17-.5.22-1.05.15-1.58a2.8 2.8 0 0 0-1.13-1.54c-.21-.16-.45-.3-.7-.37a2.75 2.75 0 0 0-1.17.06c-.76.12-1.5.37-2.19.74a3.67 3.67 0 0 0-1.49 1.77.33.33 0 0 1-.62-.23c.34-.87.96-1.6 1.75-2.09.75-.4 1.57-.68 2.42-.8.47-.13.97-.15 1.45-.06.33.1.65.27.92.49a3.35 3.35 0 0 1 1.38 1.9c.1.63.04 1.27-.16 1.87a7.46 7.46 0 0 1-.74 1.86 5.21 5.21 0 0 1-4.42 2.5ZM167.25 75.7c2.22.56 4.58.13 6.46-1.18 3.01-2.2 2.98-3.72 2.98-3.72s-4.61 1.77-8.47.45l-.97 4.45Z"/><path fill="#231F20" fill-rule="evenodd" d="M167.16 76c.68.18 1.37.26 2.06.26 1.68 0 3.31-.52 4.66-1.5 3.12-2.28 3.12-3.92 3.12-3.99 0-.1-.06-.2-.14-.25a.3.3 0 0 0-.28 0c-.04.02-4.56 1.7-8.26.45a.3.3 0 0 0-.25 0 .3.3 0 0 0-.15.2l-.97 4.47a.3.3 0 0 0 .21.36Zm6.37-1.72a7.64 7.64 0 0 1-5.91 1.2l.83-3.83c3.09.92 6.5.04 7.8-.38-.23.59-.88 1.66-2.72 3Z" clip-rule="evenodd"/><path fill="#fff" d="M173.57 57.2s-3.95 4.16-3.34 5.1c.6.95 2.79.8 2.79.8"/><path fill="#231F20" d="M172.56 63.39c-.74 0-2.08-.12-2.6-.92-.67-1.03 2.14-4.18 3.38-5.48a.31.31 0 0 1 .53.22.3.3 0 0 1-.1.21c-2 2.13-3.55 4.35-3.3 4.73.42.62 2 .66 2.5.62.16-.02.31.1.33.28a.3.3 0 0 1-.29.33h-.45Z"/><ellipse cx="178.92" cy="57.97" fill="#231F20" rx="1.11" ry=".79" transform="rotate(-68 178.92 57.97)"/><ellipse cx="170.72" cy="56.64" fill="#231F20" rx="1.11" ry=".79" transform="rotate(-68 170.72 56.64)"/><path fill="#231F20" d="M173.01 68.63a3.9 3.9 0 0 1-.94-.11c-4.3-1.04-4.2-6.06-4.2-6.11a.3.3 0 1 1 .62.02c0 .18-.09 4.56 3.73 5.48 3.81.92 5.7-5.1 5.72-5.16a.31.31 0 1 1 .59.19c-.08.24-1.83 5.7-5.52 5.7Z"/><path fill="#fff" d="m37 82.98 23.26 26.03 32.55 11.36-4.16 8.6s-21.13-3.2-29.45-4.13c-8.32-.93-18.83-13.4-18.83-13.4L37 82.97Z"/><path fill="#231F20" fill-rule="evenodd" d="M88.6 129.27h.05a.3.3 0 0 0 .28-.19l4.16-8.6a.3.3 0 0 0 0-.26.31.31 0 0 0-.18-.17L60.44 108.7 37.23 82.73a.31.31 0 0 0-.36-.08.32.32 0 0 0-.18.32l3.37 28.49c0 .06.03.12.07.16.43.52 10.7 12.58 19.04 13.52 6.18.7 19.59 2.67 25.95 3.6l3.49.52Zm-29.37-4.75c-7.77-.87-17.7-12.22-18.57-13.22L37.42 83.9l22.62 25.29a.3.3 0 0 0 .13.08l32.22 11.26-3.9 8.07c-2.33-.36-21.48-3.2-29.26-4.09Z" clip-rule="evenodd"/><path fill="#fff" d="M48.3 70.08c-.33-2.19-1.2-4.24-1.87-6.34-1.68-5.07-1.93-10.31-3.69-15.37-2.26-6.5-6.6-11.24-14.18-10.97a7.74 7.74 0 0 0-7.14 4.76c-3.59-1.98-8.37 2.04-8.54 5.72-.25 5.42.1 10.05-2.27 15.2-1.79 3.9-4.56 7.55-4.8 11.84-.22 4.28 2.2 8.29 5.7 10.66 3.48 2.37 7.87 3.15 12.07 2.84 4.2-.3 8.27-1.65 12.17-3.25a31.46 31.46 0 0 0 5.5-2.77c3.96-2.65 7.8-7.28 7.04-12.33Z"/><path fill="#231F20" fill-rule="evenodd" d="M11.33 85.83a18.69 18.69 0 0 0 10.52 2.97c.58 0 1.17-.02 1.74-.05 4.63-.34 8.98-1.94 12.26-3.28a31.24 31.24 0 0 0 5.57-2.8c3.99-2.68 7.97-7.38 7.2-12.63-.3-1.65-.76-3.27-1.37-4.83l-.54-1.55a58.38 58.38 0 0 1-1.76-7.46 56.72 56.72 0 0 0-1.93-7.92c-2.63-7.56-7.64-11.41-14.49-11.19a8 8 0 0 0-7.25 4.65 5.22 5.22 0 0 0-4.81.41c-2.2 1.23-3.8 3.58-3.9 5.72l-.02.3a54 54 0 0 0-.07 2.5c-.12 4.35-.23 8.08-2.15 12.27-.48 1.06-1.05 2.12-1.6 3.15l-.04.06C7.2 68.9 5.67 71.74 5.5 74.9c-.23 4.1 2.09 8.38 5.82 10.93Zm5.44-43.14a5.33 5.33 0 0 1 2.6-.74v.02c.67 0 1.32.16 1.91.48a.3.3 0 0 0 .25 0 .31.31 0 0 0 .18-.16 7.43 7.43 0 0 1 6.85-4.58c6.67-.24 11.3 3.38 13.9 10.77a54.65 54.65 0 0 1 1.86 7.84 59.26 59.26 0 0 0 1.79 7.52l.42 1.23.12.33c.6 1.53 1.05 3.1 1.35 4.72.73 4.96-3.1 9.46-6.93 12.02a30.87 30.87 0 0 1-5.45 2.74c-3.23 1.33-7.55 2.92-12.07 3.23-4.52.32-8.73-.66-11.88-2.79-3.58-2.43-5.76-6.5-5.55-10.39.16-3.01 1.66-5.79 3.1-8.47v-.01a56.87 56.87 0 0 0 1.67-3.25c1.97-4.28 2.08-8.26 2.2-12.48v-.04c.03-.92.05-1.84.1-2.79.08-1.93 1.56-4.07 3.58-5.2Z" clip-rule="evenodd"/><path fill="#E7816B" d="M48.41 86.88a63.76 63.76 0 0 0-.85-3.06c-.82-2.72-1.8-6.66-3.73-8.81-3.16-3.5-10.26-3.6-14.57-3.63-6.68-.04-13.5 1.53-18.96 5.36-8.4 5.9-9.96 14.47-9 24.03a878.76 878.76 0 0 0 4 32c.14 1.09 1.94 17.35 2.75 17.35.06 0 55.38.05 53.62 1.35-2.5-8.63-4.36-17.4-6.36-26.1-.43-1.86-1.18-3.55-1.64-5.36-.67-2.63-.36-5.5-.62-8.19-.54-6.21-1.87-12.32-3.16-18.41-.46-2.19-.93-4.37-1.48-6.53Z"/><path fill="#231F20" d="m64.1 164.17-6.35-27.79-51.21 4.21-.65 23.58h58.2Z"/><path fill="#231F20" fill-rule="evenodd" d="M5.89 164.48h58.2a.32.32 0 0 0 .28-.38l-6.34-27.79a.33.33 0 0 0-.33-.24l-51.22 4.21a.32.32 0 0 0-.28.3l-.63 23.58c0 .08.03.16.1.22.05.06.13.1.22.1Zm57.82-.62H6.22l.6-22.98 50.67-4.16 6.22 27.14Z" clip-rule="evenodd"/><path fill="#231F20" d="M33.71 94.79c.17.07.36.1.54.12 1.16.09 2.08-1 2.56-2.06 1.07-2.36 1.07-5.06.88-7.64a11.98 11.98 0 0 0-.96-4.44 10.04 10.04 0 0 0-2.27-2.88c-1.66-1.53-3.68-2.82-5.92-3.1-2.25-.3-5.54.93-6.23 3.39-.72 2.66 2.08 5.33 3.44 7.3a79.08 79.08 0 0 0 6.4 8.07c.43.53.96.95 1.56 1.24Z"/><path fill="#231F20" fill-rule="evenodd" d="M34.22 95.22h.17c1.56 0 2.45-1.68 2.7-2.23 1.12-2.48 1.1-5.3.91-7.8a12.37 12.37 0 0 0-1-4.55 10.17 10.17 0 0 0-2.33-2.96c-2-1.86-4.06-2.93-6.1-3.17-2.6-.3-5.85 1.08-6.54 3.62-.62 2.28 1.14 4.52 2.54 6.32.35.44.67.86.94 1.24a80.94 80.94 0 0 0 6.43 8.08c.45.55 1.02 1 1.66 1.3.2.08.41.13.62.15Zm.05-.63c-.15 0-.3-.04-.44-.1a4.02 4.02 0 0 1-1.42-1.18 78.84 78.84 0 0 1-6.39-8.04l-.9-1.16-.06-.08c-1.32-1.68-2.96-3.79-2.43-5.77.6-2.2 3.57-3.43 5.87-3.16 1.9.22 3.84 1.23 5.75 3 .9.79 1.64 1.73 2.2 2.79.58 1.38.9 2.85.93 4.35.17 2.38.2 5.13-.86 7.49-.43.94-1.27 1.95-2.25 1.86Z" clip-rule="evenodd"/><path fill="#fff" d="M60.58 45.27h87.48v93.25H60.58z"/><path fill="#231F20" fill-rule="evenodd" d="M60.58 138.83h87.48c.17 0 .31-.14.31-.31V45.27a.31.31 0 0 0-.31-.31H60.58a.31.31 0 0 0-.3.31v93.25c0 .17.13.3.3.3Zm87.17-.62H60.9V45.58h86.85v92.63Z" clip-rule="evenodd"/><path fill="#fff" d="M66.23 52.44h76.18v68.46H66.23z"/><path fill="#D1D3D4" fill-rule="evenodd" d="M66.23 121.2h76.19a.31.31 0 0 0 .3-.32V52.44a.31.31 0 0 0-.3-.31h-76.2a.31.31 0 0 0-.3.31v68.46c0 .17.14.3.3.3Zm75.87-.62H66.54V52.75h75.56v67.83Z" clip-rule="evenodd"/><path fill="#E7816B" d="M133.89 76.35c-1.1 1.2-2.14 2.49-3.28 3.61-3 3.05-6.04 6.05-9.05 9.07-.1.1-.19.24-.31.3-.55.24-1.25.76-1.61.58-.5-.38-.8-.96-.82-1.59-.09-2.33-.03-4.66-.03-7.15-.99 0-1.91-.03-2.84 0-3.5.17-6.88.87-9.93 2.69-3.76 2.08-6.15 6-6.26 10.3.03 1.16.22 2.31.55 3.42.13.59.46 1.25-.27 1.48a1.6 1.6 0 0 1-1.37-.75 31.86 31.86 0 0 1-2.26-5.87c-2.1-9.47 3.11-18.15 12.53-21.13 2.71-.86 5.54-1.3 8.4-1.31h1.44v-5.29c-.02-.83.04-1.66.17-2.48.19-.95.78-1.17 1.62-.7.34.2.65.46.92.76 3.8 3.79 7.6 7.59 11.38 11.39.37.43.71.9 1.01 1.38l.01 1.3Z"/><path fill="#E7816B" d="M86.52 110.5a9.92 9.92 0 0 1-5.52-3.1 8.78 8.78 0 0 1-2.15-5.78c0-8.24-.05-16.48 0-24.73a8.77 8.77 0 0 1 8.84-8.82c1.54-.04 3.07-.04 4.6 0 1.25 0 2.03.74 2.02 1.82-.01 1.08-.78 1.7-1.99 1.7h-4.5a5.3 5.3 0 0 0-5.45 5.36c-.02 8.28-.02 16.57 0 24.85a5.25 5.25 0 0 0 5.33 5.26h30.49a5.27 5.27 0 0 0 5.5-5.41c.04-2.6 0-5.19 0-7.78 0-1.24.53-1.9 1.54-2.04.85-.11 1.87.47 1.87 1.32 0 3.46.26 6.95-.16 10.37-.46 3.73-3.36 6.21-7.1 6.91-.14.04-.28.1-.4.16l-32.92-.08Z"/><path fill="#D1D3D4" d="M141.85 127.8H77.34a.31.31 0 1 1 0-.62h64.5a.31.31 0 1 1 0 .62ZM125.81 132.64H77.34a.31.31 0 1 1 0-.62h48.47c.17 0 .31.14.31.3 0 .18-.14.32-.3.32Z"/><circle cx="69.82" cy="128.74" r="3.58" fill="#fff"/><path fill="#D1D3D4" fill-rule="evenodd" d="M66.21 130.24a3.9 3.9 0 1 0 7.2-3 3.9 3.9 0 0 0-7.2 3Zm.57-2.75a3.28 3.28 0 1 1 6.06 2.53 3.28 3.28 0 0 1-6.06-2.53Z" clip-rule="evenodd"/><path fill="#fff" d="M40.2 51.22s3.12 7.24 2.21 12.95A8.27 8.27 0 0 1 36.48 71l.62 9.97s.38 5.1-5.93 4.72a10.78 10.78 0 0 1-8.81-5.64l-1.88-18.27s6.85-4.54 5.79-11.08c0 0 8.69 3.52 13.93.52Z"/><path fill="#231F20" fill-rule="evenodd" d="M31.18 86.03h.67c1.86 0 3.29-.5 4.26-1.46A4.97 4.97 0 0 0 37.43 81l-.62-9.72a8.66 8.66 0 0 0 5.9-7.03c.94-5.73-2.1-12.82-2.23-13.12a.3.3 0 0 0-.19-.18.33.33 0 0 0-.25 0c-4.68 2.7-12.35-.06-13.5-.47l-.16-.05a.31.31 0 0 0-.3.04.3.3 0 0 0-.12.3c1 6.25-5.58 10.72-5.65 10.76a.32.32 0 0 0-.14.3l1.9 18.3.04.1a11.2 11.2 0 0 0 9.07 5.81Zm.04-.64a10.54 10.54 0 0 1-8.53-5.41l-1.85-18.03c1-.72 6.4-4.92 5.83-10.75 1.9.7 8.76 2.88 13.4.48.58 1.44 2.86 7.57 2.07 12.46a7.93 7.93 0 0 1-5.7 6.6.31.31 0 0 0-.24.32l.62 9.94a4.39 4.39 0 0 1-1.15 3.11c-.95.97-2.45 1.4-4.45 1.28Z" clip-rule="evenodd"/><path fill="#fff" d="M23.86 60.26s-3.57-6.72-6.73-2.13c-3.16 4.58 2.19 9.04 5.25 8.43"/><path fill="#231F20" d="M21.77 66.94c-1.75 0-3.84-1.25-4.98-3a5.06 5.06 0 0 1 .12-5.98c.84-1.24 1.8-1.8 2.85-1.74 2.4.15 4.35 3.73 4.4 3.9a.31.31 0 0 1-.55.29s-1.86-3.44-3.94-3.56c-.83-.05-1.6.44-2.3 1.46a4.48 4.48 0 0 0-.11 5.28c1.18 1.8 3.44 3 5.04 2.67.17-.03.33.08.37.25a.3.3 0 0 1-.24.36c-.22.04-.44.07-.66.07ZM37.6 64.12c-.52 0-1.02-.05-1.52-.14a.3.3 0 0 1-.24-.36.31.31 0 0 1 .36-.25s2.02.4 2.97-.19c.14-.77-1.78-3.38-3.17-4.97a.3.3 0 0 1 .03-.43.32.32 0 0 1 .44 0c.62.68 3.54 4.17 3.34 5.45a.68.68 0 0 1-.32.49 3.8 3.8 0 0 1-1.9.4ZM36.47 71.01s-5.29 1.02-8.4.44c0 0 3.85 7.63 8.92 7.26l-.52-7.7Z"/><path fill="#231F20" fill-rule="evenodd" d="M27.8 71.58c.12.32 3.82 7.46 8.83 7.46l.4.01c.16-.01.3-.16.28-.33l-.52-7.7a.32.32 0 0 0-.12-.22.33.33 0 0 0-.25-.06c-.06.01-5.27 1-8.29.43a.31.31 0 0 0-.33.09.3.3 0 0 0 0 .32Zm8.84 6.84c-3.9 0-7.01-4.9-8-6.57 2.7.32 6.4-.27 7.52-.46l.48 7.03Z" clip-rule="evenodd"/><ellipse cx="32.98" cy="57.03" fill="#231F20" rx=".78" ry="1.37" transform="rotate(-7 32.98 57.03)"/><ellipse cx="39.81" cy="56.78" fill="#231F20" rx=".78" ry="1.37" transform="rotate(-7 39.8 56.78)"/><path fill="#231F20" d="M34.44 67.11c-.45 0-.9-.1-1.31-.28-1.52-.66-2.49-2.49-2.9-5.48a.31.31 0 1 1 .63-.09c.37 2.74 1.24 4.42 2.52 4.97 1.58.7 3.35-.51 3.37-.52a.31.31 0 1 1 .36.5c-.8.54-1.71.85-2.67.9Z"/><path fill="#fff" d="M118.05 138.84c-.1-.69-.17-1.38-.2-2.08a11.5 11.5 0 0 1 .66-4.24c.15-.6.48-1.15.96-1.56.5-.4 1.22-.34 1.66.12.25.5.27 1.07.07 1.6-.33 1.43-.4 2.92-.22 4.39.23-1.98.5-4.03 1.57-5.7.23-.38.55-.7.93-.94.4-.24.88-.24 1.27 0 .56.4.52 1.24.45 1.9-.18 1.74-.15 3.5.08 5.22a14.9 14.9 0 0 1 .33-4.54c.22-.98.66-2.05 1.62-2.36.2-.08.41-.09.62-.04.43.14.75.52.83.97.07.45.07.9 0 1.34-.18 1.76-.13 3.52.16 5.26-.23-1.53-.17-3.08.16-4.58.1-.6.33-1.17.7-1.65.39-.5 1.04-.68 1.63-.48.42.22.72.63.8 1.1.07.47.08.94.04 1.4a12.7 12.7 0 0 0 .97 5.18c.56 1.36 1.29 2.87 1.16 4.39a4.42 4.42 0 0 1-2.88 3.52c-1.52.53-3.16.6-4.72.22-5.14-1.01-9.4-3.46-11.2-8.38"/><path fill="#231F20" d="M128.88 147.86c-.75 0-1.49-.08-2.22-.23-5.92-1.18-9.78-4.07-11.46-8.59a.33.33 0 1 1 .63-.22c1.59 4.3 5.28 7.05 10.97 8.17 1.5.37 3.08.3 4.54-.2a4.1 4.1 0 0 0 2.67-3.25c.11-1.29-.43-2.57-.95-3.81l-.18-.44a13.17 13.17 0 0 1-1-5.3v-.22c.04-.37.03-.74-.04-1.1-.06-.38-.29-.7-.62-.88-.46-.14-.95.02-1.24.39-.34.44-.55.97-.63 1.52a12.03 12.03 0 0 0-.16 4.45c.02.18-.1.34-.27.37a.32.32 0 0 1-.35-.24c-.3-1.76-.35-3.56-.16-5.34v-.1c.06-.38.06-.76 0-1.14a.93.93 0 0 0-.62-.73.88.88 0 0 0-.47.03c-.65.21-1.13.93-1.4 2.12a14.47 14.47 0 0 0-.33 4.45.32.32 0 0 1-.28.28.32.32 0 0 1-.34-.2 22.87 22.87 0 0 1-.08-5.3c.06-.63.1-1.31-.3-1.61a.92.92 0 0 0-.94 0c-.34.2-.62.49-.82.83-1.06 1.64-1.3 3.73-1.52 5.6a.32.32 0 0 1-.31.27.32.32 0 0 1-.32-.28 13.2 13.2 0 0 1 .22-4.5c.18-.43.18-.9 0-1.33a.62.62 0 0 0-.43-.25c-.28-.04-.56.03-.79.2-.41.36-.7.85-.84 1.4-.48 1.32-.7 2.71-.65 4.12 0 .21.03.4.04.59.02.49.08.97.16 1.46a.32.32 0 0 1-.62.1c-.09-.5-.14-1-.16-1.52 0-.18 0-.37-.05-.58-.05-1.48.18-2.96.69-4.35.16-.67.54-1.27 1.06-1.72.36-.26.8-.37 1.25-.31.33.04.64.22.85.5.3.57.35 1.25.12 1.86v.1c.2-.57.46-1.12.79-1.63.25-.43.61-.8 1.05-1.05.5-.3 1.12-.28 1.6.04.63.47.63 1.34.63 1.95.23-.8.81-1.46 1.59-1.78.26-.09.55-.1.82-.04.56.18.98.66 1.07 1.24.06.29.07.58.05.87.1-.23.25-.44.41-.62.47-.6 1.29-.83 2-.56.52.27.87.75.97 1.32.08.41.1.83.07 1.24v.22c-.03 1.73.29 3.44.94 5.04l.18.44c.53 1.24 1.13 2.66 1 4.1a4.7 4.7 0 0 1-3.07 3.8c-.88.3-1.82.41-2.75.35Z"/><path fill="#fff" d="m183.15 104.14-.94 14.26s-29.25-23-34.15-23.98v4.02s-8.13-1-8.78.62c-.65 1.62.45 7.76 2.57 9 1.24.75 11.75.81 11.75.81s1.5 3.64 16 16.98c14.49 13.34 28.13 20.48 28.98 7.98.86-12.5 1.94-33.55 1.94-33.55"/><path fill="#231F20" d="M193.22 140.61c-5.15 0-13.62-5.13-23.85-14.54-12.75-11.74-15.47-15.98-15.97-16.9-1.73 0-10.47-.12-11.71-.85-2.33-1.37-3.4-7.66-2.7-9.4.69-1.73 6.79-1.09 8.75-.87v-3.66c0-.1.05-.19.12-.25a.34.34 0 0 1 .27-.07c4.62.93 29.87 20.58 33.8 23.67l.9-13.63a.32.32 0 1 1 .62.04l-.92 14.25a.3.3 0 0 1-.2.27.32.32 0 0 1-.32-.04c-.28-.23-27.87-21.88-33.6-23.81v3.6a.32.32 0 0 1-.37.32c-3.27-.4-8.09-.54-8.44.43-.6 1.47.48 7.45 2.43 8.6.88.52 7.41.74 11.6.77.12 0 .24.08.3.2 0 .03 1.72 3.81 15.9 16.87 11.63 10.69 20.84 15.78 25.32 14.03 1.87-.74 2.91-2.7 3.12-5.84.84-12.35 1.92-33.35 1.93-33.56a.32.32 0 0 1 .34-.3c.08 0 .16.04.22.1.06.06.09.15.08.23 0 .21-1.1 21.22-1.93 33.56-.24 3.4-1.42 5.59-3.53 6.39-.69.27-1.42.4-2.16.4Z"/><path fill="#fff" d="m182.2 118.37 7.02 5.22-7.01-5.22Z"/><path fill="#231F20" d="M189.22 123.91a.4.4 0 0 1-.2-.06l-7-5.22a.33.33 0 0 1-.07-.46c.1-.13.3-.16.45-.06l7.01 5.22a.32.32 0 0 1-.2.58Z"/><path fill="#fff" d="M20 92.64s12 22.24 12.33 23.11c.1.3 24.72-12.87 25.62-14.66-.3-2.02-.1-4.08.58-6 .4-1.05 1.13-1.18 2-1.92a29.78 29.78 0 0 0-.07 3.95 46.2 46.2 0 0 1 5.34-4.83c.4-.42 1-.61 1.57-.5.26.13.47.33.62.57 2.55 3.59.42 7.9-1.4 11.25-3.45 6.31-8.62 10.23-14.1 14.64a136.19 136.19 0 0 1-11.4 8.18 56.9 56.9 0 0 1-9.68 5.25c-2.03.8-4.83 1.86-6.98.85-7.81-3.61-16.77-22.1-19.21-30.22"/><path fill="#231F20" d="M26.46 133.25a5.06 5.06 0 0 1-2.14-.44c-4.42-2.04-8.83-8.49-11.75-13.54a89.12 89.12 0 0 1-7.62-16.87.31.31 0 0 1 .6-.18c2.48 8.36 11.5 26.55 19.03 30.03 1.96.9 4.51 0 6.74-.86a56.85 56.85 0 0 0 9.62-5.22c3.93-2.53 7.72-5.25 11.37-8.16l.95-.76c5.07-4.06 9.86-7.9 13.07-13.79 1.93-3.54 3.8-7.6 1.42-10.92a1.2 1.2 0 0 0-.5-.46c-.4-.16-.88.17-1.25.46a47.26 47.26 0 0 0-5.3 4.79.31.31 0 0 1-.53-.19c-.05-.57-.05-2.24 0-3.3l-.22.14c-.51.27-.91.71-1.12 1.25a12.41 12.41 0 0 0-.57 5.83.3.3 0 0 1 0 .19c-.52 1.04-7.38 5-13.06 8.14-3.24 1.8-12.27 6.7-12.86 6.7a.34.34 0 0 1-.29-.2c-.25-.67-8.16-15.4-12.3-23.08a.31.31 0 1 1 .55-.3c.46.87 10.93 20.29 12.21 22.9 2.72-1.09 23.79-12.66 25.12-14.41-.28-2.03-.07-4.1.62-6.03.26-.65.74-1.19 1.36-1.52.25-.16.5-.34.74-.53.1-.09.24-.1.35-.04.11.06.18.19.16.32-.1 1.05-.13 2.1-.1 3.15A47.25 47.25 0 0 1 65.61 92c.5-.39 1.19-.81 1.87-.55.32.15.6.39.79.69 2.78 3.91.17 8.7-1.4 11.58-3.27 6-8.08 9.87-13.22 13.97l-.95.76a134.96 134.96 0 0 1-11.42 8.2 57.5 57.5 0 0 1-9.73 5.28c-1.6.74-3.33 1.2-5.1 1.32Z"/><path fill="#231F20" d="M20 92.92a.31.31 0 0 1-.26-.15L13.7 82.5a.31.31 0 1 1 .54-.32l6.04 10.3a.3.3 0 0 1-.11.41.28.28 0 0 1-.18.02ZM183.15 104.47a.32.32 0 0 1-.29-.35l1.33-14.42c.02-.18.17-.3.35-.29a.31.31 0 0 1 .3.35l-1.34 14.42c0 .08-.05.16-.11.21a.32.32 0 0 1-.24.08Z"/><defs><linearGradient id="a" x1="0" x2="202" y1="202" y2="202" gradientUnits="userSpaceOnUse"><stop stop-color="#5D0202" stop-opacity=".01"/><stop offset="1" stop-color="#5D0202" stop-opacity=".5"/></linearGradient></defs></svg>