<svg xmlns="http://www.w3.org/2000/svg" width="202" height="202" fill="none"><circle cx="101" cy="101" r="101" fill="url(#a)" opacity=".2" transform="matrix(-1 0 0 1 202 0)"/><path fill="#231F20" d="M164.84 138.14s22.6-58.97 10.9-67.96c-11.71-9-60.8-5.36-63.5-2.15-2.68 3.21-18.52 74.2-18.52 74.2l71.12-4.1Z"/><path fill="#231F20" fill-rule="evenodd" d="M93.43 142.46c.06.07.16.12.26.12l.02.01 71.16-4.12c.13 0 .25-.09.3-.22.17-.45 5.77-15.1 9.84-30.63 5.6-21.23 5.91-33.89.94-37.7-7.15-5.49-27.11-5.82-35.35-5.71-14.02.18-27.13 1.84-28.61 3.61-2.72 3.24-17.99 71.44-18.63 74.35-.03.1 0 .21.07.3Zm47.19-77.59h2.58c15.95 0 27.66 2.01 32.3 5.58 11.04 8.46-9.47 63.5-10.92 67.34l-70.48 4.07c5.51-24.65 16.33-71.13 18.39-73.61 1.2-1.4 13.72-3.19 28.13-3.38Z" clip-rule="evenodd"/><path fill="#fff" d="m73.1 87.19-10.18 34.19s21 2.71 21 1.94c0-.78 4.12-37.63 4.12-37.63L73.1 87.2Z"/><path fill="#231F20" fill-rule="evenodd" d="M62.88 121.7c6.37.84 16.44 2.06 19.99 2.06.42.04.86-.02 1.26-.17a.44.44 0 0 0 .14-.3c0-.69 2.7-24.88 4.11-37.58a.32.32 0 0 0-.1-.28.34.34 0 0 0-.27-.1l-14.94 1.5a.34.34 0 0 0-.3.24l-10.18 34.2a.35.35 0 0 0 .29.43Zm20.69 1.4c-1.6.22-12.93-1.07-20.23-2l10-33.59 14.29-1.43-.11 1c-.74 6.6-3.7 33.23-3.95 36.02Z" clip-rule="evenodd"/><path fill="#fff" d="M53.8 78.7c.09.1 3.7-.87 5.57 1.37 1.87 2.25-.55 4.25-6.45 3.09-5.9-1.16.88-4.46.88-4.46Z"/><path fill="#231F20" fill-rule="evenodd" d="M52.85 83.5c1.05.22 2.11.33 3.18.34 2.02 0 3.5-.52 4.07-1.42.44-.76.28-1.66-.46-2.53-1.65-1.98-4.54-1.63-5.52-1.51h-.25a.34.34 0 0 0-.22 0c-.62.31-3.68 1.88-3.48 3.43.1.8.98 1.36 2.68 1.7Zm-1.98-1.81c-.1-.76 1.67-1.97 3-2.66.09 0 .18 0 .32-.02.95-.13 3.5-.44 4.9 1.25.5.43.65 1.11.4 1.71-.5.86-2.51 1.59-6.5.8-1.76-.35-2.12-.83-2.12-1.08Z" clip-rule="evenodd"/><path fill="#fff" d="M44.74 71.52s-.74-.85-.28-1.44a1 1 0 0 1 1.64.15s-1.17.42-1.36 1.3Z"/><path fill="#231F20" fill-rule="evenodd" d="M44.47 71.76c.07.07.17.12.27.11h.09a.35.35 0 0 0 .25-.27c.12-.56.86-.94 1.13-1.04.11-.04.2-.13.22-.24a.34.34 0 0 0-.07-.32 1.5 1.5 0 0 0-1.2-.62c-.38 0-.74.18-.97.48-.52.65-.06 1.5.28 1.9Zm.28-1.46c.1-.14.26-.21.43-.22l.01.03c.1-.01.2 0 .3.04a2.7 2.7 0 0 0-.74.63.53.53 0 0 1 0-.48Z" clip-rule="evenodd"/><path fill="#fff" d="M46.36 70.2c-.84.06-1.53.69-1.68 1.52L59.4 90.88a4.12 4.12 0 0 1 3.52-3.68l-16.56-17Z"/><path fill="#231F20" fill-rule="evenodd" d="M59.12 91.09c.06.08.17.13.27.14l.1-.02a.35.35 0 0 0 .26-.3 3.76 3.76 0 0 1 3.23-3.36.35.35 0 0 0 .28-.24.34.34 0 0 0-.09-.35L46.61 69.95a.36.36 0 0 0-.25-.11c-1 .07-1.82.8-2.02 1.78-.03.1 0 .22.06.3L59.12 91.1Zm.1-1.04-14.15-18.4c.15-.55.6-.97 1.16-1.09l16 16.44a4.4 4.4 0 0 0-3.02 3.05Z" clip-rule="evenodd"/><path fill="#fff" d="m59.4 90.88 5.02 2.6.63-.58-2.13-5.7s-3.91-.39-3.52 3.67Z"/><path fill="#231F20" fill-rule="evenodd" d="M64.26 93.8c.05.02.1.03.16.03.09 0 .18-.03.24-.09l.63-.58c.1-.1.14-.25.09-.38l-2.12-5.7a.36.36 0 0 0-.3-.23c-1.1-.1-2.2.26-3.03.98a3.65 3.65 0 0 0-.89 3.07c.01.12.09.23.2.28l5.02 2.61Zm.1-.75-4.62-2.4c-.13-.84.12-1.69.68-2.32.63-.53 1.43-.8 2.25-.78l1.97 5.25-.28.25Z" clip-rule="evenodd"/><path fill="#fff" d="m64.42 93.48.96 1.03.46-.51-.8-1.1-.62.58Z"/><path fill="#231F20" fill-rule="evenodd" d="M65.13 94.75c.06.08.16.12.25.12h.03c.1 0 .2-.05.26-.12l.45-.52c.1-.13.1-.3 0-.44l-.79-1.1a.36.36 0 0 0-.52-.05l-.63.58a.36.36 0 0 0-.11.25c0 .1.03.18.1.25l.96 1.03Zm.25-.77-.46-.48.06-.06.4.54Z" clip-rule="evenodd"/><path fill="#fff" d="M54.73 92.38c.81-1.64 2.84-5.12 3.31-6.63 1.3-4.12-6.26-7.98-8.7-7.98-2.45 0-7.55 8.54-7.55 13.1 0 4.57 16.91 39.52 16.91 39.52l16.23-7.42-20.2-30.6Z"/><path fill="#231F20" fill-rule="evenodd" d="M58.4 130.55c.06.12.19.2.32.2.06 0 .12 0 .17-.03l16.24-7.44c.09-.05.16-.13.19-.22.02-.1 0-.21-.05-.3l-20.1-30.4.52-.98.43-.82a37.73 37.73 0 0 0 2.3-4.7 4.12 4.12 0 0 0-.85-3.78c-1.98-2.66-6.36-4.67-8.24-4.67-2.72 0-7.88 8.88-7.88 13.47 0 4.47 15.46 36.57 16.87 39.5l.09.17ZM42.17 90.87c0-4.51 5.03-12.75 7.17-12.75 1.58 0 5.75 1.8 7.66 4.4.75.87 1.03 2.05.74 3.15a37.49 37.49 0 0 1-2.24 4.58c-.41.77-.79 1.48-1.05 2a.37.37 0 0 0 0 .35l19.99 30.2-15.54 7.13-.05-.1c-1.89-3.93-16.68-34.79-16.68-38.96Z" clip-rule="evenodd"/><path fill="#E7816B" d="m141.07 99.3 20-5.1c-.69-.97-8.75-26.6-17.26-30.79-7.45-4.94-25.1-8.24-40.7-7.12 0 0-4.11-.15-11.33 2.71C74.2 66 70.8 90.33 70.8 90.33l13.72 4.74s-2.62 31.47-5.1 47.93c0 0 30.35 5.93 74.52-1.38.03-.01-12.8-37.67-12.88-42.32Z"/><path fill="#E7816B" d="M139.42 64.12c-2.64 2.74-4.71 6.04-7.63 8.63-6.3 5.57-14.54 9.98-23.18 9.45-10.18-.63-18.99-7.6-21.2-17.73-1.37-6.36.06-12.26 4.97-16.75 3.4-3.1 7.75-5 12.2-6.18 11.8-3.16 25.05-1.48 35.13 5.45a12.54 12.54 0 0 1 4.06 4.04c2.52 4.56-.37 9.26-3.64 12.4-.22.2-.45.45-.7.69Z"/><path fill="#231F20" d="M104.68 71.31c-.1 0-2 2.3-2.09 2.34 1.08 4.07 2.22 9.36 6.81 9.88 9.33 1.06 10.74-11.37 12.5-17.24-6.46 1.8-11.01 2.54-17.22 5.02Z"/><path fill="#231F20" fill-rule="evenodd" d="M109.37 83.87c.37.05.75.07 1.13.07 7.31 0 9.48-8.7 10.9-14.58l.09-.33c.24-.97.47-1.88.7-2.67a.36.36 0 0 0-.08-.33.34.34 0 0 0-.33-.1c-2 .57-3.8 1.02-5.56 1.46-3.97.91-7.87 2.1-11.67 3.58-.1.05-.12.05-1.18 1.28-.37.42-.87 1-.98 1.1a.34.34 0 0 0-.13.37l.17.69.01.04c1.05 3.97 2.36 8.9 6.93 9.42Zm-6.3-9.63-.12-.48h.02a33.2 33.2 0 0 1 1.87-2.19 82.8 82.8 0 0 1 11.56-3.53l.92-.23c1.29-.33 2.64-.67 4.07-1.06-.21.74-.42 1.56-.63 2.42v.02c-1.57 6.27-3.7 14.84-11.33 13.97-4.12-.43-5.3-4.92-6.35-8.9v-.02Z" clip-rule="evenodd"/><path fill="#fff" d="M113.71 23.43c-1.37-.05-2.25.54-3.43.97-2.3.81-3.37-1.11-5.34-2.13A15.18 15.18 0 0 0 86.1 26.2a11.35 11.35 0 0 0-2.56 5.7c-.29 2.37.38 4.8-.03 7.15a8.08 8.08 0 0 1-5 6.04c2.2.17 4.4-.04 6.53-.61a6.65 6.65 0 0 1-4.96 2.36 12.35 12.35 0 0 0 7.63 2.56l-4.83 1.14c4.11 2.64 9.13 3.43 13.98 3.2 9.66-.5 25.84-4.45 25.56-16.97-.16-4.8-2.8-13.07-8.72-13.35Z"/><path fill="#231F20" fill-rule="evenodd" d="M82.67 50.86c4.1 2.62 8.84 3.3 12.54 3.3.58 0 1.13-.01 1.7-.05 2.92-.15 10.39-.88 16.65-4.02 6.25-3.13 9.36-7.62 9.24-13.3-.1-5.37-3.08-13.43-9.02-13.7a5.89 5.89 0 0 0-2.83.7l-.75.3c-1.44.5-2.32-.17-3.43-1.01-.52-.42-1.08-.8-1.66-1.11A15.52 15.52 0 0 0 85.86 26a11.71 11.71 0 0 0-2.64 5.88c-.1 1.14-.1 2.29 0 3.43a15.3 15.3 0 0 1-.04 3.72 7.7 7.7 0 0 1-4.8 5.77.34.34 0 0 0-.22.37c.02.16.15.28.3.3 1.83.14 3.66.03 5.46-.35a6.29 6.29 0 0 1-3.87 1.41.34.34 0 0 0-.2.62 12.76 12.76 0 0 0 5.62 2.46l-2.69.62a.36.36 0 0 0-.26.28c-.02.13.04.27.15.35Zm14.16 2.62c-3.56.17-8.65-.17-13.08-2.75l4.04-1c.17-.05.28-.21.26-.38a.34.34 0 0 0-.35-.3 12 12 0 0 1-6.67-1.96 7.02 7.02 0 0 0 4.26-2.41.35.35 0 0 0 0-.4.34.34 0 0 0-.38-.15 19.2 19.2 0 0 1-5.06.68 8.4 8.4 0 0 0 3.96-5.69c.17-1.28.19-2.59.05-3.88-.1-1.1-.1-2.2 0-3.29.3-2.03 1.17-3.93 2.5-5.5a14.82 14.82 0 0 1 18.4-3.84c.54.3 1.06.64 1.55 1.04 1.17.89 2.28 1.73 4.06 1.1.29-.09.55-.2.82-.31l.1-.05a5.42 5.42 0 0 1 2.41-.58c5.5.27 8.24 7.94 8.36 13.04.11 5.41-2.86 9.67-8.87 12.68-6.2 3.12-13.5 3.8-16.36 3.95Z" clip-rule="evenodd"/><path fill="#fff" d="m101.9 61.83.7 11.82s5.4 6.18 12.34 2.38c6.95-3.8 6.69-9.81 6.69-9.81l-4.57-22.2s-6.3-1.45-7.9-13.87a38.11 38.11 0 0 1-18.62 7.9s.13 13.9 2.58 19.42c2.45 5.53 8.79 4.36 8.79 4.36Z"/><path fill="#231F20" fill-rule="evenodd" d="M102.33 73.88c.04.05 3.33 3.73 8.05 3.73a9.74 9.74 0 0 0 4.7-1.27c6.96-3.8 6.87-9.88 6.87-10.18v-.01l-4.57-22.21a.35.35 0 0 0-.26-.27 7.2 7.2 0 0 1-3.22-2.23c-1.57-1.71-3.62-5.07-4.43-11.36a.35.35 0 0 0-.22-.27.34.34 0 0 0-.35.06 38.16 38.16 0 0 1-18.43 7.81.35.35 0 0 0-.29.35c0 .75.17 14.1 2.6 19.56 2.18 4.9 7.33 4.77 8.78 4.63l.69 11.45c0 .08.03.15.08.2Zm12.45 1.83c-6.26 3.43-11.17-1.47-11.86-2.22l-.67-11.71c0-.1-.06-.2-.13-.26a.35.35 0 0 0-.28-.06c-.25.04-6.1 1.02-8.41-4.18-2.2-4.95-2.54-16.93-2.54-19a39.45 39.45 0 0 0 18-7.54c1.58 10.84 6.74 13.12 7.88 13.5l4.52 21.96c0 .19.09 5.9-6.5 9.51Z" clip-rule="evenodd"/><path fill="#fff" d="M114.49 50.24a6.17 6.17 0 0 0 4.57-1.12 6.61 6.61 0 0 0 2.45-5.99 5.5 5.5 0 0 0-.68-2.4 2.92 2.92 0 0 0-1.94-1.45 4.7 4.7 0 0 0-2.87.76c-1.33.7-1.37 1.45-2.1 2.58.08-.1.14-.4.23-.5"/><path fill="#231F20" d="M115.4 50.66c-.32 0-.64-.02-.97-.07a.35.35 0 0 1-.28-.4.34.34 0 0 1 .39-.28 5.8 5.8 0 0 0 4.3-1.08 6.26 6.26 0 0 0 2.31-5.68 5.13 5.13 0 0 0-.6-2.25 2.59 2.59 0 0 0-1.71-1.28c-.85-.15-1.7.24-2.65.73a2.9 2.9 0 0 0-1.43 1.53c-.14.26-.3.56-.51.88a.3.3 0 0 1-.06.08.34.34 0 0 1-.46.05.34.34 0 0 1-.09-.46s0-.1.05-.14c.04-.13.1-.24.17-.35a.36.36 0 0 1 .14-.1l.13-.24a3.6 3.6 0 0 1 1.73-1.83c.8-.42 1.92-1 3.07-.8.94.19 1.75.78 2.22 1.62.42.79.66 1.66.69 2.55.3 2.4-.7 4.79-2.6 6.28a6.48 6.48 0 0 1-3.83 1.24ZM102.26 68.05a8.32 8.32 0 0 0 6.6-4.12c2.42-4.04 1.45-6.63 1.45-6.63s-3.27 4.17-8.4 4.5l.35 6.25Z"/><path fill="#231F20" fill-rule="evenodd" d="M101.93 68.06c0 .19.15.33.33.33l.02.03a8.57 8.57 0 0 0 6.86-4.25c2.49-4.14 1.53-6.81 1.5-6.92a.35.35 0 0 0-.27-.22.34.34 0 0 0-.33.13c-.11.14-3.3 4.05-8.16 4.36a.34.34 0 0 0-.32.37l.37 6.17Zm.65-.38-.32-5.54a12.9 12.9 0 0 0 7.84-4.07c.13.96.09 2.97-1.55 5.71a8.08 8.08 0 0 1-5.97 3.9Z" clip-rule="evenodd"/><path fill="#fff" d="M101 43.04s-2.57 6.79-1.4 7.6c1.16.8 3.62-.48 3.62-.48"/><path fill="#231F20" d="M100.6 51.25c-.42.02-.85-.1-1.2-.33-1.3-.9.68-6.35 1.27-8a.34.34 0 0 1 .63-.02c.04.09.04.18 0 .27-1.19 3.15-2.05 6.8-1.51 7.18.81.56 2.64-.17 3.27-.5a.35.35 0 0 1 .47.15c.08.17.01.37-.16.46-.85.46-1.8.72-2.76.79Z"/><ellipse cx="105.63" cy="41.53" fill="#231F20" rx=".99" ry="1.41" transform="rotate(-18 105.63 41.53)"/><ellipse cx="96.44" cy="43.71" fill="#231F20" rx=".99" ry="1.41" transform="rotate(-1 96.44 43.71)"/><path fill="#231F20" fill-rule="evenodd" d="M99.96 58.8c.55.37 1.2.56 1.86.55.42 0 .84-.06 1.24-.18a5.61 5.61 0 0 0 3.57-3.37c.5-1.3.7-2.69.56-4.07a.37.37 0 0 0-.14-.25c-.16-.12-.26-.19-9.14 1.76a.35.35 0 0 0-.27.35c0 .15.16 3.64 2.32 5.21Zm.4-.56c-1.56-1.12-1.93-3.55-2-4.38v-.01c2.82-.62 6.98-1.51 8.16-1.72a7.93 7.93 0 0 1-.52 3.43 4.96 4.96 0 0 1-3.15 2.96c-.83.28-1.75.18-2.5-.28Z" clip-rule="evenodd"/><path fill="#231F20" d="M106.32 55.7c-1.32 3.18-4.62 3.94-6.18 2.84.35-1.22.99-2.48 2.18-2.94a5.8 5.8 0 0 1 4 .1Z"/><path fill="#231F20" fill-rule="evenodd" d="M99.96 58.8c.55.37 1.2.56 1.86.54.42 0 .83-.06 1.24-.17a5.63 5.63 0 0 0 3.57-3.36.36.36 0 0 0 0-.27.35.35 0 0 0-.2-.18 6.17 6.17 0 0 0-4.22-.1c-1.1.43-1.9 1.5-2.37 3.17-.04.14 0 .29.12.37Zm2.89-.3c-.75.26-1.57.2-2.28-.13.43-1.3 1.05-2.14 1.9-2.48a5.37 5.37 0 0 1 3.38 0 4.88 4.88 0 0 1-3 2.62ZM88.21 46.9c.2.95 1.04 1.62 2.01 1.62.15 0 .3-.03.44-.07l7.65-1.68a2.06 2.06 0 0 0 1.54-2.43l-.68-3.27a2.06 2.06 0 0 0-2.46-1.58l-7.65 1.69a2.06 2.06 0 0 0-1.57 2.45l.72 3.27Zm8.65-6.74h.3l.03-.02c.63 0 1.17.45 1.31 1.06l.69 3.28c.14.72-.31 1.43-1.03 1.6L90.5 47.8a1.37 1.37 0 0 1-1.6-1.03l-.73-3.32a1.37 1.37 0 0 1 1.04-1.61l7.64-1.68ZM102.74 45.2a2.06 2.06 0 0 0 1.6.29l7.64-1.68a2.06 2.06 0 0 0 1.53-2.45l-.68-3.28a2.06 2.06 0 0 0-2.46-1.57l-7.64 1.67a2.06 2.06 0 0 0-1.57 2.46l.68 3.28c.12.53.44 1 .9 1.29Zm7.76-8a1.37 1.37 0 0 1 1.64 1.04l.68 3.27c.08.35.02.71-.18 1.02-.2.3-.5.51-.85.59l-7.65 1.67a1.37 1.37 0 0 1-1.6-1.03l-.72-3.27c-.08-.35-.01-.72.18-1.02.2-.3.5-.52.85-.6l7.65-1.67Z" clip-rule="evenodd"/><path fill="#231F20" d="M98.82 41.5a.33.33 0 0 1-.18-.05.36.36 0 0 1-.13-.48c.32-.56 1.37-1.43 3.1-.73a.37.37 0 0 1-.27.68c-1.53-.62-2.15.33-2.21.44a.36.36 0 0 1-.31.14Z"/><path fill="#fff" d="M30.47 132.88h141.06l22.64 41.36H7.83l22.64-41.36Z"/><path fill="#D1D3D4" fill-rule="evenodd" d="M7.83 174.58h186.34c.12 0 .24-.06.3-.17a.36.36 0 0 0 0-.34l-22.64-41.36a.33.33 0 0 0-.3-.18H30.48a.34.34 0 0 0-.3.18L7.54 174.07a.36.36 0 0 0 0 .34c.06.1.17.17.29.17Zm185.76-.69H8.4l22.26-40.67h140.66l22.26 40.67Z" clip-rule="evenodd"/><path fill="#fff" d="m32.65 106.2.3-1.3c.7-1.31 1.45-2.2 3.22-2.2h67.16c1.66.01 3.13 1.11 3.6 2.71l10.91 37.53a3.35 3.35 0 0 1-1.86 4.19l-1.18.28-82.15-41.21Z"/><path fill="#231F20" fill-rule="evenodd" d="M114.65 147.72c.04.02.1.03.15.03l.07.03 1.22-.3a3.7 3.7 0 0 0 2.06-4.6l-10.92-37.58a4.12 4.12 0 0 0-3.93-2.95H36.15c-2.05 0-2.84 1.12-3.52 2.36v.1l-.3 1.3c-.04.15.03.31.17.38l82.15 41.23Zm.22-.67L33.07 106l.2-1c.74-1.27 1.39-1.96 2.9-1.96h67.18c1.51.01 2.84 1 3.27 2.46l10.92 37.52c.39 1.36.04 3.12-1.61 3.77l-1.06.25Z" clip-rule="evenodd"/><path fill="#231F20" d="M114.8 147.41H46.27a2.17 2.17 0 0 1-2.05-1.56L32.68 106.2a1.02 1.02 0 0 1 .98-1.3h70.36l11.92 41a1.18 1.18 0 0 1-1.14 1.51Z"/><path fill="#231F20" fill-rule="evenodd" d="M46.27 147.75h68.53a1.53 1.53 0 0 0 1.47-1.95l-11.93-41a.33.33 0 0 0-.32-.24H33.64a1.37 1.37 0 0 0-1.31 1.73l11.53 39.65a2.53 2.53 0 0 0 2.41 1.81ZM33.1 105.51a.69.69 0 0 1 .54-.28h70.1L115.63 146c.07.25.02.53-.14.74a.86.86 0 0 1-.68.34H46.27c-.81 0-1.53-.54-1.76-1.32L32.98 106.1a.69.69 0 0 1 .12-.6Z" clip-rule="evenodd"/><path fill="#fff" d="m103.3 130.52-4.16 17.71a4.3 4.3 0 0 1-4.2 3.33H51.6a4.32 4.32 0 0 1-4.2-5.3l3.67-15.74h-3.59l-3.51 14.93a7.85 7.85 0 0 0 7.64 9.6h43.37a7.82 7.82 0 0 0 7.6-6l4.35-18.53h-3.63Z"/><path fill="#231F20" fill-rule="evenodd" d="M51.6 155.45h43.34a8.15 8.15 0 0 0 8-6.31l4.35-18.53c.02-.1 0-.21-.07-.3a.35.35 0 0 0-.26-.12h-3.63c-.15 0-.3.1-.33.26l-4.16 17.72a3.97 3.97 0 0 1-3.87 3.06H51.6a3.98 3.98 0 0 1-3.87-4.88l3.7-15.74c.02-.1 0-.21-.06-.3a.35.35 0 0 0-.27-.12h-3.63c-.15 0-.3.1-.33.26l-3.5 14.94a8.2 8.2 0 0 0 7.96 10.06Zm-7.32-9.9 3.44-14.68h2.94l-3.6 15.32a4.66 4.66 0 0 0 4.54 5.73h43.36a4.63 4.63 0 0 0 4.53-3.6l4.12-17.45h2.91l-4.25 18.1a7.47 7.47 0 0 1-7.3 5.8H51.6a7.49 7.49 0 0 1-7.32-9.23Z" clip-rule="evenodd"/><path fill="#fff" d="M159.2 94.39s6.13 27.25 1.1 34.21c-5.01 6.96-40.09 5.86-40.09 5.86s-5.69 6.83-10.63 6.38c-4.94-.45-2.05-9.8 3.76-13.7l-.8-3.24 30.92-4.96-4.12-19.59"/><path fill="#231F20" d="M110.04 141.2h-.52a2.9 2.9 0 0 1-2.69-2.3c-.77-3.04 1.71-8.84 6.08-11.88l-.74-3.02c-.02-.09 0-.19.04-.27a.34.34 0 0 1 .23-.15l30.57-4.9-4.05-19.22a.34.34 0 0 1 .27-.4.34.34 0 0 1 .4.25l4.12 19.58c.02.1 0 .2-.05.27a.33.33 0 0 1-.23.15l-30.55 4.9.68 2.89a.34.34 0 0 1-.13.36c-4.2 2.82-6.72 8.48-6 11.3.2 1 1.04 1.73 2.06 1.77 4.7.44 10.3-6.18 10.33-6.25a.34.34 0 0 1 .28-.13c.35 0 34.99 1.01 39.83-5.72 4.85-6.73-1.1-33.64-1.16-33.93a.35.35 0 0 1 .69-.15c.25 1.12 6.1 27.46 1.05 34.49-4.94 6.86-37.32 6.1-40.25 6-.77.9-5.67 6.37-10.26 6.37ZM122.4 80.9a.32.32 0 0 1-.15-.05.34.34 0 0 1-.17-.46c4.99-10.3 17.78-17.23 17.9-17.3a.34.34 0 0 1 .48.15.35.35 0 0 1-.15.48c-.12.07-12.7 6.86-17.59 16.98a.36.36 0 0 1-.32.2ZM101.25 80.4a.37.37 0 0 1-.15 0C89.15 74.93 87.7 62.86 87.7 62.74a.36.36 0 0 1 .57-.32c.08.06.13.15.14.24 0 .12 1.42 11.8 13.03 17.05.18.08.26.29.18.47a.36.36 0 0 1-.36.24ZM46.8 95.97a.36.36 0 0 1 0-.69c5.17-.16 7.68-3.08 7.7-3.1a.35.35 0 0 1 .5-.06c.15.13.17.35.05.5-.11.14-2.74 3.2-8.23 3.37l-.02-.02Z"/><path fill="#231F20" d="M139.3 99.7c-.16 0-.3-.1-.34-.27 0-.12-3.24-12.77-3.68-20.35a.35.35 0 0 1 .33-.38c.2 0 .36.14.38.33.44 7.52 3.63 20.1 3.65 20.23a.36.36 0 0 1-.25.44h-.09ZM84 101.96a.35.35 0 0 1-.33-.38l1.7-26.66a.35.35 0 0 1 .38-.33.34.34 0 0 1 .33.37l-1.73 26.67c-.01.18-.16.33-.35.33ZM144.75 87.04a.34.34 0 0 1-.31-.18l-3.32-6.18a.37.37 0 0 1 0-.28c.03-.1.1-.17.18-.21l10.3-4.87a.35.35 0 0 1 .47.17c.08.17 0 .38-.17.47l-9.97 4.7 3 5.58 10.11-3.09a.36.36 0 0 1 .2.69l-10.39 3.21h-.1Z"/><ellipse cx="153.66" cy="160.27" fill="#fff" rx="16.94" ry="5.1"/><path fill="#D1D3D4" fill-rule="evenodd" d="M136.38 160.27c0 3.06 7.6 5.45 17.28 5.45 9.69 0 17.28-2.4 17.28-5.45 0-3.05-7.6-5.44-17.28-5.44-9.69 0-17.28 2.39-17.28 5.44Zm.68 0c0-2.3 6.67-4.75 16.6-4.75 9.93 0 16.6 2.45 16.6 4.75s-6.67 4.76-16.6 4.76c-9.93 0-16.6-2.46-16.6-4.76Z" clip-rule="evenodd"/><path fill="#fff" d="m140.9 145.7-.41.08a5.03 5.03 0 0 0-3.13 1.77 4.33 4.33 0 0 0-.1 4.58c1.8 3.24 6.17 4.12 9.55 4.45.47.08.96.04 1.42-.1.47-.17.78-.6.8-1.1a1.2 1.2 0 0 0-.7-.9 3.66 3.66 0 0 0-1.11-.32c-2.1-.34-4.31-.6-6.23-1.57-1.12-.57-2.69-1.86-1.87-3.27.29-.44.7-.79 1.18-1 1.93-.92 3.76-.22 5.66.35.14.05.29.07.43.06.38-.1.62-.47.56-.86-.06-.83-.9-1.37-1.67-1.68-1.4-.53-2.91-.7-4.39-.48Z"/><path fill="#231F20" fill-rule="evenodd" d="M146.78 156.92c.2.03.4.04.6.04.33 0 .66-.05.98-.17a1.37 1.37 0 0 0 .17-2.62 3.8 3.8 0 0 0-1.23-.35l-.78-.12a18.2 18.2 0 0 1-5.35-1.42c-.82-.36-1.48-1-1.86-1.81-.1-.33-.05-.68.13-.97.25-.38.62-.69 1.04-.87 1.64-.78 3.23-.3 4.92.22l.5.15c.18.06.38.08.57.07.56-.13.92-.66.85-1.23-.09-1.12-1.2-1.71-1.9-1.97a9.05 9.05 0 0 0-4.58-.5l-.42.08c-1.3.2-2.5.87-3.34 1.9a4.66 4.66 0 0 0-.13 4.94c1.47 2.64 4.68 4.15 9.83 4.63Zm-6.22-10.8.39-.07v.01a8.38 8.38 0 0 1 4.23.47c.42.15 1.4.6 1.45 1.37.02.2-.09.48-.25.48-.1 0-.2 0-.29-.04l-.5-.15c-1.73-.53-3.53-1.07-5.4-.18-.55.24-1.02.64-1.34 1.14-.28.46-.35 1-.2 1.51a4.3 4.3 0 0 0 2.2 2.24c1.77.77 3.65 1.27 5.56 1.48l.78.12c.35.04.69.13 1 .28.26.11.44.35.49.63a.85.85 0 0 1-.58.75c-.4.12-.84.15-1.26.08-4.9-.46-7.94-1.86-9.28-4.28a3.99 3.99 0 0 1 .07-4.21 4.74 4.74 0 0 1 2.93-1.63Z" clip-rule="evenodd"/><path fill="#fff" d="M142.48 142.23s3.17 15.83 3.43 16.79c.26.95 7.75 4.87 13.72 1.02l5.22-16.18-22.37-1.63Z"/><path fill="#231F20" fill-rule="evenodd" d="M148.55 161.05c1.67.65 3.45.99 5.24 1 2.13.04 4.22-.55 6.02-1.69.07-.04.12-.1.14-.18l5.22-16.17a.34.34 0 0 0-.3-.45l-22.37-1.66a.33.33 0 0 0-.36.4c.13.66 3.18 15.85 3.43 16.8.17.62 1.66 1.44 2.98 1.95Zm-2.31-2.12c-.23-.85-2.82-13.74-3.34-16.32l21.51 1.57-5.05 15.64c-3.6 2.25-7.55 1.55-9.6.92-2.2-.67-3.43-1.59-3.52-1.81Z" clip-rule="evenodd"/><ellipse cx="153.7" cy="142.7" fill="#231F20" rx="4.86" ry="11.22" transform="rotate(-88 153.7 142.7)"/><path fill="#231F20" fill-rule="evenodd" d="M153.47 147.92h1.1c2.39.05 4.77-.33 7.02-1.12 2.27-.85 3.6-2.16 3.65-3.6.12-2.92-4.86-5.4-11.34-5.67-6.48-.27-11.64 1.8-11.77 4.72-.12 2.92 4.86 5.4 11.34 5.67Zm-10.66-5.64c.1-2.33 4.6-4.12 10.03-4.12l1.06.02c5.88.25 10.79 2.52 10.68 4.97-.04 1.13-1.21 2.22-3.2 2.98-2.53.89-5.2 1.27-7.88 1.1-5.88-.23-10.78-2.5-10.69-4.95Z" clip-rule="evenodd"/><path fill="#fff" fill-rule="evenodd" d="M90.54 98.25h36.3c.19 0 .34-.14.35-.32V87.2a.34.34 0 0 0-.34-.34h-36.3a.35.35 0 0 0-.35.34V97.9c0 .2.15.34.34.34Zm35.96-.68H90.9V87.53h35.61v10.04Z" clip-rule="evenodd"/><path fill="#fff" d="M7.83 174.24h186.33v7.19H7.83z"/><path fill="#D1D3D4" fill-rule="evenodd" d="M7.83 181.77h186.34c.19 0 .34-.16.34-.35v-7.18a.35.35 0 0 0-.34-.35H7.83a.35.35 0 0 0-.34.35v7.18c0 .2.15.35.34.35Zm186-.69H8.17v-6.5h185.66v6.5Z" clip-rule="evenodd"/><path fill="#fff" d="M164.84 107.12a.35.35 0 0 1-.33-.35c0-.8.5-19.4 2.55-25.85 2.05-6.44 5.9-9.13 6.06-9.23a.34.34 0 1 1 .38.57c-.04 0-3.8 2.6-5.79 8.87-2 6.26-2.5 25.46-2.52 25.65a.34.34 0 0 1-.34.34Z"/><defs><linearGradient id="a" x1="0" x2="202" y1="202" y2="202" gradientUnits="userSpaceOnUse"><stop stop-color="#5D0202" stop-opacity=".01"/><stop offset="1" stop-color="#5D0202" stop-opacity=".5"/></linearGradient></defs></svg>