<svg xmlns="http://www.w3.org/2000/svg" width="202" height="202" fill="none"><circle cx="101" cy="101" r="101" fill="url(#a)" opacity=".2" transform="matrix(0 1 1 0 0 0)"/><path fill="#D1D3D4" d="M192.03 166.45H9.97a.35.35 0 0 1 0-.7h182.06c.2 0 .35.15.35.35 0 .2-.15.35-.35.35Z"/><path fill="#fff" d="M136.14 104.14h40.64v70.06h-40.64z"/><path fill="#231F20" fill-rule="evenodd" d="M136.14 174.55h40.65a.36.36 0 0 0 .35-.37v-70.04c0-.2-.16-.36-.35-.36h-40.65c-.2 0-.35.16-.35.36v70.06c0 .2.16.35.35.35Zm40.3-.7H136.5V104.5h39.93v69.34Z" clip-rule="evenodd"/><path fill="#fff" d="M24.17 104.14h40.64v70.06H24.17z"/><path fill="#231F20" fill-rule="evenodd" d="M24.17 174.55h40.65a.36.36 0 0 0 .35-.37v-70.04c0-.2-.16-.36-.35-.36H24.17c-.2 0-.35.16-.35.36v70.06c0 .2.16.35.35.35Zm40.3-.7H24.52V104.5h39.93v69.34Z" clip-rule="evenodd"/><path fill="#231F20" d="m143.7 83.83 8.06 16.22h-21.77l13.72-16.22Z"/><path fill="#231F20" fill-rule="evenodd" d="M130.01 100.4h21.75c.13.02.26-.05.33-.17a.34.34 0 0 0 0-.34l-8.04-16.22a.35.35 0 0 0-.28-.2.33.33 0 0 0-.3.13l-13.72 16.22a.35.35 0 0 0 .26.58Zm21.17-.7h-20.42l12.87-15.23 7.55 15.22Z" clip-rule="evenodd"/><path fill="#231F20" d="M81.9 100.05h51.82l18.8-27.66H103.6l-21.7 27.66Z"/><path fill="#231F20" fill-rule="evenodd" d="M81.9 100.4h51.82c.12 0 .23-.05.3-.15L152.8 72.6a.35.35 0 0 0 0-.37.37.37 0 0 0-.31-.2h-48.91c-.1 0-.21.06-.28.14l-21.7 27.66a.36.36 0 0 0 .28.57Zm51.65-.7H82.64l21.13-26.95h48.1l-18.32 26.94Z" clip-rule="evenodd"/><path fill="#fff" d="M105.16 75.08 89.68 95.22h38.45l14.55-20.14h-37.52Z"/><path fill="#231F20" fill-rule="evenodd" d="M89.68 95.58h38.45c.1 0 .2-.06.27-.15l14.54-20.14a.35.35 0 0 0 0-.37.34.34 0 0 0-.3-.2h-37.51c-.11 0-.21.05-.28.14L89.35 95a.38.38 0 0 0 0 .38c.07.12.2.2.33.2Zm38.23-.71H90.4l14.94-19.45h36.64l-14.07 19.45Z" clip-rule="evenodd"/><path fill="#D1D3D4" d="M116.17 91.56a.35.35 0 0 1-.33-.24c-1.86-5.51-4.45-11.55-5.4-11.7-1.12 0-8.34 6-14.75 11.85a.35.35 0 0 1-.59-.18.36.36 0 0 1 .11-.34c2.22-2.03 13.27-12.03 15.3-12.03h.08c1.81.28 5.02 9.38 5.96 12.17a.35.35 0 0 1-.23.45.3.3 0 0 1-.15.02Z"/><path fill="#D1D3D4" d="M127.72 92.3c-.16 0-.3-.11-.34-.27-1.24-4.44-3.02-9.18-3.85-9.43-.84-.24-4.72 3.27-7.87 6.66a.35.35 0 0 1-.5 0 .36.36 0 0 1-.02-.5c1.61-1.72 7-7.31 8.6-6.83 1.59.48 3.88 8.34 4.32 9.95a.36.36 0 0 1-.24.44l-.1-.02Z"/><path fill="#A7A9AC" fill-rule="evenodd" d="M137.54 85.13c0 .53.69.95 1.56.95.87 0 1.55-.42 1.55-.95 0-.54-.7-.95-1.56-.95-.84 0-1.55.41-1.55.95Zm.14 0c0-.42.66-.77 1.41-.77v.02c.75 0 1.38.33 1.38.75s-.59.77-1.38.77c-.78 0-1.41-.35-1.41-.77Z" clip-rule="evenodd"/><path fill="#A7A9AC" d="M145.28 78.02h-3.14a.1.1 0 0 1-.09-.08.1.1 0 0 1 .09-.1h3.14a.08.08 0 0 1 .09.1c0 .04-.04.08-.09.08Z"/><path fill="#fff" d="M133.72 100.4a.37.37 0 0 1-.22-.06.36.36 0 0 1-.07-.5l10.03-13.83a.36.36 0 0 1 .5-.07c.15.11.19.33.07.5L134 100.28a.36.36 0 0 1-.28.11Z"/><path fill="#D1D3D4" fill-rule="evenodd" d="M114.62 78.65a1.56 1.56 0 1 0 3.12 0 1.56 1.56 0 0 0-3.12 0Zm.7 0a.85.85 0 1 1 1.7 0 .85.85 0 0 1-1.7 0Z" clip-rule="evenodd"/><path fill="#fff" d="M18.77 100.65h159.74v6.8H18.77z"/><path fill="#231F20" fill-rule="evenodd" d="M18.77 107.8h159.75c.2 0 .35-.15.35-.35v-6.8c0-.2-.16-.35-.35-.35H18.77c-.2 0-.35.16-.35.35v6.8c0 .2.16.36.35.36Zm159.37-.7H19.13V101h159v6.1Z" clip-rule="evenodd"/><path fill="#fff" d="M78.86 137.44c.14.5-8.8 32.72-8.8 32.72l12.5 2.01 14.76-44.5-18.46 9.77Z"/><path fill="#231F20" fill-rule="evenodd" d="M82.5 172.53h.06c.15 0 .28-.1.33-.24l14.77-44.5a.38.38 0 0 0-.1-.39.36.36 0 0 0-.4-.04l-18.47 9.77c-.12.06-.2.2-.19.34-.1 1.07-5.3 20.04-8.78 32.6-.02.1 0 .2.04.28.06.09.15.15.25.16l12.5 2.02Zm-.17-.75-11.8-1.92h-.02c5.37-19.34 8.28-30.14 8.66-32.18l17.56-9.28-14.4 43.38Z" clip-rule="evenodd"/><path fill="#231F20" d="m69.31 168.76-1.9 6.01 29.91 2.33a12.45 12.45 0 0 0-6.8-6.15c-3.1-1.1-6.45-2.4-6.45-2.4l-1.51 3.62-13.25-3.4Z"/><path fill="#231F20" fill-rule="evenodd" d="m67.4 175.13 29.92 2.32c.14.04.29-.02.37-.15a.36.36 0 0 0 0-.34 12.76 12.76 0 0 0-7-6.34c-2.23-.79-4.6-1.7-5.75-2.13l-.7-.27a.35.35 0 0 0-.45.2l-1.42 3.33-12.95-3.33a.35.35 0 0 0-.42.24l-1.9 6a.36.36 0 0 0 .3.47Zm29.31 1.57-28.84-2.25 1.67-5.24 12.93 3.31c.17.04.34-.05.41-.21l1.38-3.3.13.05c1.01.38 3.6 1.37 6.02 2.22 2.67 1.01 4.9 2.93 6.3 5.42Z" clip-rule="evenodd"/><path fill="#231F20" d="M48.31 137.86 46.2 171.8s-7.18.25-8.97 1.51c-1.8 1.26-3.27 7-3.27 7h2.24s1.3-4.27 2.73-4.78c1.43-.51 9.56-.71 9.56-.71s3.92 1.52 4.55 4.13c.5 2.05.35 2.52.35 2.52h2.48c-.01-1.16-.18-2.33-.5-3.45-.5-1.42-2.36-3.12-2.36-3.12s4.1.09 5.47.09c1.36 0 2.79 2.61 2.79 2.61h2.66s-2.78-4.72-4.59-5.05c-1.8-.33-6.43-1.14-6.43-1.14l-1.26-31.62-3.33-1.93Z"/><path fill="#231F20" fill-rule="evenodd" d="M53.4 181.84h2.48c.2 0 .35-.16.35-.35 0-1.2-.18-2.4-.52-3.55a8.2 8.2 0 0 0-1.8-2.63l.66.01c1.31.03 3.1.06 3.92.06.83 0 1.97 1.49 2.48 2.43.06.11.18.18.3.18h2.68a.36.36 0 0 0 .3-.54c-.28-.5-2.92-4.86-4.82-5.21-1.53-.3-5.12-.92-6.16-1.1l-1.25-31.33a.35.35 0 0 0-.18-.3l-3.35-1.93a.36.36 0 0 0-.34 0 .37.37 0 0 0-.18.29l-2.09 33.62c-1.44.06-7.18.4-8.84 1.56-1.88 1.33-3.34 6.96-3.4 7.2a.36.36 0 0 0 .34.44h2.26c.16 0 .3-.1.34-.25.48-1.57 1.6-4.2 2.51-4.54 1.11-.45 7.07-.66 9.37-.71.47.2 3.72 1.62 4.25 3.85.24.75.36 1.54.36 2.34-.04.1-.02.22.05.31.07.1.17.15.29.15Zm2.11-.71h-1.73c-.07-.77-.2-1.53-.41-2.28-.67-2.75-4.6-4.3-4.77-4.37h-.14c-.33 0-8.33.22-9.67.71-1.35.5-2.5 3.75-2.83 4.76h-1.52c.5-1.8 1.74-5.45 3-6.35 1.41-.96 6.82-1.35 8.8-1.42.17 0 .32-.15.33-.33l2.06-33.4 2.69 1.56 1.24 31.42c0 .17.13.31.3.34.05 0 4.65.8 6.42 1.13 1.2.23 3.07 2.85 4.02 4.35h-1.82c-.39-.66-1.65-2.61-3-2.61-1.15 0-4.25-.06-5.18-.08h-.27c-.15 0-.28.09-.34.22-.05.14-.02.3.09.4.16.14 1.82 1.69 2.26 2.96.29.97.45 1.98.47 2.99Z" clip-rule="evenodd"/><path fill="#fff" d="M89.23 116.22s28.27 1.51 30.05 5.56c1.78 4.04-11.32 48.5-11.32 48.5s13.83 4.8 11.57 5.8c-2.27 1.02-24.91-1-24.91-1l10.73-41.21-27.97-1.9 11.85-15.75Z"/><path fill="#231F20" fill-rule="evenodd" d="M94.61 175.44c1.82.16 14.72 1.29 21.36 1.29 1.25.08 2.52-.03 3.74-.31a.66.66 0 0 0 .46-.64c-.06-1.46-7.98-4.4-11.74-5.72 1.29-4.37 12.94-44.45 11.2-48.43-.3-.67-1.2-2.71-15.98-4.5a237.87 237.87 0 0 0-14.38-1.27.3.3 0 0 0-.3.15l-11.85 15.78c-.09.1-.1.25-.05.37.06.11.17.19.3.2l27.54 1.86L94.3 175c-.03.1-.01.2.05.3.06.08.15.14.26.15Zm24.8.32c-1.75.78-17.76-.42-24.33-1L105.71 134a.4.4 0 0 0-.05-.3.37.37 0 0 0-.27-.14l-27.32-1.86L89.4 116.6c7.94.43 28.14 2.12 29.56 5.33 1.41 3.22-7.7 35.94-11.33 48.26-.05.19.04.38.22.44 5.28 1.83 11.1 4.28 11.57 5.14Z" clip-rule="evenodd"/><path fill="#fff" d="M79.64 90.95s14.52 18.2 20.73 17.69c6.2-.5 23.98-22.93 23.98-22.93 3.22-3.85 6.81-8.74 4.51-14.05-.23-.5-.62-1.06-1.17-1.01a1.5 1.5 0 0 0-.65.26l-1.98 1.22c.06-.55-.63-.94-1.16-.79-.52.2-.95.58-1.22 1.07-2.06 2.94-3.39 5.74-3.27 9.36L98.63 92.43l-8.25-9.16"/><path fill="#231F20" d="M100.12 109c-6.44 0-20.17-17.05-20.75-17.83a.36.36 0 0 1 .07-.47c.14-.12.35-.1.48.03.14.18 14.1 17.57 20.18 17.57h.24c5.99-.49 23.55-22.58 23.72-22.8 3.32-3.97 6.66-8.62 4.46-13.68-.08-.2-.38-.83-.82-.8-.18.03-.34.1-.49.2l-2 1.22a.35.35 0 0 1-.53-.34c0-.1-.04-.2-.13-.26a.7.7 0 0 0-.58-.14c-.43.18-.8.51-1.02.93-1.75 2.49-3.34 5.31-3.22 9.15 0 .14-.07.26-.19.33L98.76 92.77a.35.35 0 0 1-.42-.08L90.1 83.5a.36.36 0 0 1 .5-.5l8.06 8.94L119 81.54c-.06-3.93 1.57-6.82 3.34-9.36.32-.55.82-.98 1.42-1.2.43-.11.9 0 1.24.28.1.09.17.19.24.3l1.58-.98c.24-.17.52-.27.81-.31.62-.05 1.16.4 1.52 1.23 2.56 5.9-2.07 11.44-4.56 14.42-.71.9-17.92 22.54-24.21 23.05l-.26.03Z"/><path fill="#fff" d="M32.1 87.85s-7.47 17.02-4.7 18.83c2.77 1.82 19.66 0 19.66 0l-1.47-22.02"/><path fill="#231F20" d="M33.82 107.8c-3.02 0-5.66-.2-6.63-.85-.48-.3-1.95-1.27 1.19-10.48 1.5-4.44 3.38-8.72 3.4-8.76a.35.35 0 1 1 .64.28c-2.83 6.47-6.66 17.18-4.84 18.37 2.13 1.42 14.16.48 19.11 0l-1.41-21.68a.36.36 0 1 1 .7-.05l1.47 22.03c.01.19-.13.35-.32.37-.5.03-7.63.78-13.31.78Z"/><path fill="#fff" d="M38.2 116.69s-3.66 8.16.24 13.3c3.9 5.14 58.03 5.76 58.03 5.76l3.89-19.53-22.65-3.1-1.32-6.76-38.2 10.33Z"/><path fill="#231F20" fill-rule="evenodd" d="M68.88 135.16c13.9.78 27.47.95 27.6.95.18 0 .32-.13.35-.3l3.84-19.55c.02-.1 0-.19-.05-.27a.34.34 0 0 0-.24-.15L78 112.8l-1.27-6.52a.35.35 0 0 0-.16-.22.33.33 0 0 0-.28-.05L38.1 116.33c-.1.02-.2.1-.24.2-.15.34-3.7 8.4.29 13.65 1.68 2.24 12.03 3.9 30.74 4.97Zm-30.16-5.38c-3.44-4.54-.73-11.66-.27-12.8l37.72-10.17 1.24 6.39c.02.15.14.26.3.28l22.24 3.05-3.76 18.87c-18.74-.22-54.48-1.69-57.47-5.62Z" clip-rule="evenodd"/><path fill="#fff" d="M60.38 47.97a4.88 4.88 0 0 1-1.42-1.29 7.5 7.5 0 0 1-1.13-2.52c-1.92-6.97-1.93-15.88 4.25-20.65a14.3 14.3 0 0 1 12.98-2.3c3 .97 5.54 5.11 6.88 7.8 1.1 2.19 1.84 4.56 3.14 6.62 1.3 2.06 3.38 3.87 5.81 3.99a7.3 7.3 0 0 1-6.37.38 4.15 4.15 0 0 0 4.22 1.59c-1.42 1.13-3.44 1.08-5.23.7-1.78-.37-3.54-.94-5.37-.7-2.83.32-4.67 2.4-6.88 3.92-2.81 1.85-7.67 4.33-10.88 2.46Z"/><path fill="#231F20" fill-rule="evenodd" d="M60.22 48.29c.86.48 1.84.73 2.83.7 3.2 0 6.75-2.12 8.4-3.27.57-.4 1.12-.82 1.66-1.24l.2-.16c1.51-1.15 2.95-2.25 4.87-2.46 1.34-.08 2.69.08 3.98.45.43.1.85.2 1.28.28 2.39.46 4.24.19 5.5-.81a.36.36 0 0 0-.3-.63c-.95.21-1.94.05-2.77-.47 1.77.34 3.6.04 5.17-.84a.34.34 0 0 0 .17-.4.35.35 0 0 0-.33-.26c-2.9-.15-4.82-2.72-5.53-3.82a28.14 28.14 0 0 1-1.95-4c-.36-.85-.74-1.74-1.17-2.6-1.25-2.51-3.86-6.9-7.08-7.95a14.62 14.62 0 0 0-13.3 2.37c-7.76 6-5.3 17.6-4.36 21.01.23.96.63 1.87 1.19 2.68.4.57.93 1.05 1.54 1.42Zm2.04-24.52a14 14 0 0 1 12.69-2.26c3.09 1 5.7 5.64 6.67 7.6.36.67.66 1.37.95 2.06l.2.5a28.07 28.07 0 0 0 2.02 4.09 8.65 8.65 0 0 0 4.89 3.96 7 7 0 0 1-5-.1.34.34 0 0 0-.41.1c-.1.12-.1.3 0 .42.7.95 1.76 1.6 2.92 1.78-1.17.28-2.4.28-3.58 0l-.94-.2-.31-.07c-1.38-.4-2.82-.56-4.25-.47-2.2.25-3.84 1.53-5.42 2.76-.53.42-1.07.84-1.63 1.22-1.6 1.09-7.08 4.5-10.5 2.5-.5-.3-.96-.7-1.31-1.2a7.2 7.2 0 0 1-1.09-2.42c-.91-3.31-3.3-14.54 4.1-20.27Z" clip-rule="evenodd"/><path fill="#fff" d="M79.56 42.91s1.93 6.07.92 6.93c-1.02.86-3.12-.49-3.12-.49"/><path fill="#231F20" d="M79.62 50.49a5.26 5.26 0 0 1-2.43-.84.36.36 0 0 1 .02-.63.35.35 0 0 1 .37.03c.5.32 2.04 1.1 2.68.52.5-.42-.14-3.72-1.04-6.54a.36.36 0 0 1 .23-.45c.19-.06.39.04.45.23.46 1.48 1.91 6.4.82 7.3-.3.26-.7.4-1.1.38Z"/><path fill="#fff" d="M80.73 35.96c1.65 2.36 0 5.9-.7 8.3-.98 3.4-2.04 6.76-3.17 10.1-.7 2.13-6.28.6-7.08-.33l-1.51 8.75-11.73-4.07 3.77-10.6s3.78 1.09 7.17-2.69c3.4-3.77 5.76-13.4 5.76-13.4s5.89 1.63 7.5 3.94Z"/><path fill="#231F20" fill-rule="evenodd" d="M68.15 63.14h.11c.06 0 .1-.02.15-.05.1-.05.15-.14.17-.25L70 54.66a9.63 9.63 0 0 0 5.52 1.04 1.95 1.95 0 0 0 1.63-1.19c1.13-3.33 2.2-6.74 3.17-10.11l.41-1.3.02-.04c.76-2.33 1.7-5.15.23-7.27-1.64-2.34-7.25-3.94-7.68-4.06h-.01a.35.35 0 0 0-.27 0 .34.34 0 0 0-.16.21c0 .1-2.47 9.69-5.67 13.24-3.14 3.5-6.54 2.65-6.8 2.58h-.01a.35.35 0 0 0-.43.22l-3.74 10.64a.41.41 0 0 0 0 .28c.04.09.12.15.2.18l11.74 4.06Zm-.16-.83-11-3.82 3.52-10c1.02.2 4.23.46 7.2-2.83 3.09-3.43 5.28-11.37 5.75-13.18 1.3.38 5.68 1.86 6.95 3.68 1.26 1.8.4 4.45-.31 6.6l-.03.08-.14.45c-.1.3-.2.6-.27.88-.97 3.36-2.04 6.75-3.17 10.07-.12.38-.5.64-1.1.76-1.8.36-4.86-.61-5.37-1.2a.35.35 0 0 0-.62.17L68 62.31Z" clip-rule="evenodd"/><path fill="#fff" d="M77.49 51.8s-3.08.88-3.7-2.23l3.7 2.23Z"/><path fill="#231F20" d="M76.55 52.27a3.3 3.3 0 0 1-1.73-.44 3.18 3.18 0 0 1-1.42-2.2c-.03-.19.1-.37.28-.41.2-.04.39.08.43.27.1.7.48 1.33 1.06 1.73.68.34 1.46.43 2.2.24a.37.37 0 0 1 .45.45.37.37 0 0 1-.26.26c-.33.08-.67.11-1.01.1Z"/><path fill="#fff" d="M72.46 43.26c.14-.87.04-1.77-.3-2.6a7.17 7.17 0 0 0-.78-1.89 2.35 2.35 0 0 0-1.67-1.07c-.62-.01-1.21.25-1.62.71-.42.44-.72.98-.9 1.56a7.59 7.59 0 0 0 1.54 7.39l-.14-.26"/><path fill="#231F20" d="M68.73 47.71c-.1 0-.2-.04-.26-.11a8 8 0 0 1-1.62-7.77c.2-.63.53-1.22.98-1.7a2.5 2.5 0 0 1 1.9-.79c.8.1 1.51.55 1.94 1.23.37.62.66 1.29.84 1.99.35.88.46 1.85.3 2.79-.06.19-.25.3-.44.25a.36.36 0 0 1-.25-.43c.12-.81.02-1.64-.3-2.4a6.48 6.48 0 0 0-.74-1.8c-.3-.5-.83-.84-1.42-.92-.5 0-1 .2-1.34.58-.38.4-.66.9-.81 1.42a7.28 7.28 0 0 0 1.15 6.7c.1.02.18.09.23.18l.13.25c.08.16.04.36-.11.46a.33.33 0 0 1-.18.07Z"/><ellipse cx="79.3" cy="39.99" fill="#231F20" rx="1.26" ry=".5" transform="rotate(-77 79.3 39.99)"/><path fill="#231F20" d="M69.78 54.03c-1.54-1-3.01-2.1-4.41-3.29 0 0-.71 6.16 3.49 7.57l.92-4.28Z"/><path fill="#231F20" fill-rule="evenodd" d="M68.74 58.67h.12a.36.36 0 0 0 .35-.28l.91-4.26a.36.36 0 0 0-.15-.37 43.9 43.9 0 0 1-4.38-3.27.37.37 0 0 0-.36-.06.36.36 0 0 0-.22.3c-.02.26-.67 6.45 3.73 7.94Zm-.14-.84c-2.72-1.2-2.91-4.84-2.91-6.36a43.9 43.9 0 0 0 3.69 2.73l-.78 3.63Z" clip-rule="evenodd"/><path fill="#E7816B" d="M36 119.38s.64-43.48 7.14-53.5c6.5-10 23.35-12.26 31.4-6.3 8.03 5.97 4.16 51.59 4.16 51.59s-25.63 8.21-42.7 8.21Z"/><path fill="#E7816B" d="M68.92 57.03a46.9 46.9 0 0 1 11.86 7.02c5.56 4.64 17.3 24.6 17.3 24.6l-15.48 9.4-13.9-17.2.22-23.82ZM49.83 59.73s-8.1.92-12.39 9.85c-2.32 4.85-8.26 20.5-8.26 20.5l17.87 2.06 2.78-32.4Z"/><path fill="#231F20" d="M81.44 96.97a.35.35 0 0 1-.28-.15L67.35 77.94a.36.36 0 0 1 .07-.5.36.36 0 0 1 .5.08l13.8 18.88a.36.36 0 0 1-.28.57ZM122.66 75.63l3.45-10.76 1.08.31L125 75.8s-1.53 1.48-2.36-.17Z"/><path fill="#231F20" fill-rule="evenodd" d="M123.48 76.76h.24a2.5 2.5 0 0 0 1.54-.67.34.34 0 0 0 .1-.18l2.17-10.66a.35.35 0 0 0-.25-.4l-1.07-.32a.37.37 0 0 0-.44.23l-3.43 10.78a.36.36 0 0 0 0 .27c.2.49.62.85 1.14.95Zm.09-.71a.85.85 0 0 1-.56-.46l3.3-10.28.44.12-2.1 10.18c-.29.28-.68.44-1.08.44Z" clip-rule="evenodd"/><path fill="#E7816B" d="M57.35 51.26c-6.37-1.42-13.45-.42-18.6 3.56a13.2 13.2 0 0 0-4.68 6.4 8.4 8.4 0 0 0 1.31 7.65c4.89 5.89 15.6 5.86 22.24 3.94 4.52-1.31 17.91-7.7 14.22-13.96-2.65-4.48-9.71-6.56-14.49-7.59Z"/><path fill="#231F20" d="M49.24 73.34a25.01 25.01 0 0 1-11.98-3.46.35.35 0 0 1-.11-.5c.1-.16.32-.2.48-.1.09.06 8.84 5.52 17.13 2.37 3.98-1.52 6.37-4.2 8.65-6.8 2.53-2.84 4.92-5.52 9.03-5.9a.35.35 0 0 1 .39.33.35.35 0 0 1-.32.38c-3.84.35-6.03 2.84-8.56 5.69-2.26 2.53-4.8 5.4-8.94 6.98-1.85.68-3.8 1.03-5.77 1ZM36.64 103.84a.36.36 0 0 1-.34-.37c.52-11.25 2.83-27.43 2.83-27.6.04-.19.21-.32.4-.3.2.04.33.21.3.4 0 .17-2.34 16.35-2.83 27.53 0 .2-.16.35-.36.34ZM90.92 174.32h15.03s1.64-3.66 5.16-4.16c0 0 13.72 5.81 11.7 7-2.02 1.2-32.96 1.07-32.96 1.07l1.07-3.91Z"/><path fill="#231F20" fill-rule="evenodd" d="M89.85 178.6H93c8.2 0 28.27-.11 29.98-1.15a.71.71 0 0 0 .38-.65c-.1-1.76-9.3-5.8-12.12-7a.34.34 0 0 0-.19 0c-3.2.47-4.9 3.35-5.33 4.17H90.92c-.17 0-.3.1-.35.26l-1.06 3.92c-.03.1 0 .22.06.31.07.09.17.14.28.14Zm32.78-1.74c-1.4.83-19.91 1.06-32.32 1.03l.87-3.22h14.77c.14 0 .27-.07.33-.2.01-.04 1.57-3.43 4.78-3.95 5.58 2.37 11.57 5.46 11.57 6.34Z" clip-rule="evenodd"/><path fill="#231F20" d="M79.55 139.37c9.57-2.03 16-6.52 12.23-12.6-3.77-6.06-30.8-2.12-36.1-6.62-5.28-4.5-3.4-28.35-9.2-32.44-5.8-4.08-30.67-8.21-33.45-3.05-2.78 5.16 0 42.7 8.1 51.03 8.1 8.33 49.08 5.61 58.42 3.68Z"/><path fill="#231F20" fill-rule="evenodd" d="M49.86 141.75h1.6c11.39 0 23.3-1.05 28.18-2.13 7.1-1.5 11.76-4.13 13.17-7.41.77-1.78.53-3.7-.7-5.69-2.14-3.42-11.03-3.78-19.63-4.13h-.03c-6.97-.29-14.18-.58-16.52-2.58-2.47-2.11-3.36-8.94-4.21-15.55v-.03c-.95-7.22-1.92-14.69-5.04-16.88-4.95-3.47-22.73-6.8-30.43-4.97-1.84.47-3.02 1.17-3.53 2.13-3.01 5.6.12 43.16 8.13 51.45 4.5 4.6 18.26 5.7 29.01 5.79ZM16.4 83.1a23.7 23.7 0 0 1 5.23-.49c8.49 0 20.8 2.68 24.62 5.39 2.88 2 3.83 9.37 4.74 16.42.92 7.05 1.78 13.7 4.46 16 2.53 2.16 9.55 2.44 16.98 2.74h.02c8.43.34 17.1.7 19.03 3.8 1.1 1.79 1.32 3.48.66 5.05-1.28 3.02-5.9 5.58-12.67 7-9.39 1.96-50.15 4.63-58.09-3.55-7.8-8.04-10.79-45.52-8.04-50.61.4-.77 1.44-1.36 3.06-1.75Z" clip-rule="evenodd"/><path fill="#D1D3D4" d="M97.32 119.74h-.06l-22.81-4.01a.36.36 0 0 1 .12-.71l22.81 4a.36.36 0 0 1-.06.72Z"/><path fill="#231F20" d="m163.1 166.37-.7-.08c0-.2 2.22-20.78-4.87-29.91l.56-.44c3.06 3.94 4.83 10.26 5.26 18.8.2 3.88.12 7.76-.25 11.63Z"/><path fill="#231F20" d="M160.66 168.99c-.01-.24.01-.48.07-.71 1.7-10.77-1.18-15.78-3.88-18.1l.46-.54c2.83 2.43 5.86 7.66 4.12 18.75l-.07.52-.7.08Z"/><path fill="#231F20" d="M156.99 145.61a4.04 4.04 0 0 0-1.89-.55 4.33 4.33 0 0 0-3.33.92c-.23.22-.44.6-.23.86.13.11.29.19.46.2.94.28 1.67 1.02 1.94 1.96-.49-.36-.9-.82-1.41-1.18-.47-.4-1.08-.6-1.7-.56-.66.16-1.25.55-1.64 1.11-.46.5-.84 1.05-1.13 1.66-.3.6-.39 1.3-.25 1.96a4.72 4.72 0 0 1 1.98-.13c.48.04.93.23 1.3.53.1.09.18.2.22.34a.57.57 0 0 1-.45.6c-.27.07-.55.07-.82 0a14.5 14.5 0 0 0-1.75-.24 1.72 1.72 0 0 0-.65.04c-.52.3-.8.88-.71 1.47-.01.24.08.47.25.64.29.23.7.07 1.04-.08.6-.25 1.23-.38 1.87-.4.07 0 .15.01.22.04a.32.32 0 0 1 .05.46.84.84 0 0 1-.45.27c-.49.15-.98.27-1.49.34-.29.05-.63.11-.77.37a.82.82 0 0 0-.08.37c-.03.97.25 1.91.8 2.71.08.14.2.27.34.37.19.1.4.16.63.17 1.68.17 3.38-.07 4.95-.71a.43.43 0 0 0 .2-.15c.1-.16-.06-.35-.18-.5-.52-.64-.4-1.57-.25-2.4a.7.7 0 0 1 .18-.42c.2-.14.48-.1.64.1.14.2.22.43.23.67.1.84.04 1.7-.2 2.5.82-.18 1.61-.45 2.37-.8a7.3 7.3 0 0 0 1.73-.96c.53-.4.9-.98 1.05-1.64a.53.53 0 0 0-.03-.36.6.6 0 0 0-.21-.18 4.48 4.48 0 0 1-1.67-1.98c-.08-.17-.11-.4.05-.49a.33.33 0 0 1 .2 0c.9.15 1.35 1.15 2.08 1.69.06.04.13.07.2.08.1 0 .19-.04.25-.1.3-.28.5-.65.57-1.04.21-.78.17-1.61-.13-2.37a2.67 2.67 0 0 0-1.72-1.56c-.37-.08-.74-.1-1.1-.05-.14 0-.81.25-.9.16-.1-.08.26-.6.35-.77.46-1.05-.16-2.4-1.01-2.97ZM167.68 139.18a3.4 3.4 0 0 0-2.83 1.47c-.43.75-.6 1.61-.5 2.46.11.84.32 1.67.61 2.47.56-1 1.57-1.67 2.7-1.77 1.16-.1-.19 1.01-.38 1.25-.66.77-1.28 1.56-1.9 2.35-.17.2-.3.45-.34.71 0 .29.08.57.24.8.48 1.07 1.2 2 2.12 2.73.26.22.61.28.92.15.15-.13.25-.28.31-.46.34-.71.78-1.37 1.31-1.96.13-.15.34-.3.5-.2.16.11.13.28.12.43l-.15 1.59c-.1.57-.06 1.16.1 1.71.38 1.01 1.5 1.51 2.56 1.71.29.08.6.08.88 0 .56-.2.8-.87.9-1.47.1-.78.43-1.52.93-2.13a8 8 0 0 0 .96 2.94c.26.48.61.91 1.04 1.25.46.33.99.55 1.54.64.93.17 1.89.22 2.83.16.66 0 1.3-.08 1.94-.25.64-.18 1.18-.6 1.53-1.16.56-1 .13-2.3-.6-3.2-.72-.9-1.7-1.57-2.44-2.44.93.26 1.8.71 2.55 1.34.18.2.44.32.7.32.13-.02.25-.09.33-.18 1.12-1.12-.17-3.02-.76-4.03a3.26 3.26 0 0 0-1.59-1.63c-.41-.11-.85-.11-1.27 0-.64.1-3.8 1.54-2.45-.35a3.7 3.7 0 0 1 2.93-1.29c.55.05 1.38.5 1.36-.53a1.92 1.92 0 0 0-.41-1 22.2 22.2 0 0 0-1.41-1.9.93.93 0 0 0-.54-.38.9.9 0 0 0-.53.15c-1.29.79-2.71 1.32-4.2 1.58-.34 0-.81-.1-.76-.44a.5.5 0 0 1 .22-.3c.9-.7 2.25-.4 3.16-1.05.28-.18.47-.47.5-.8 0-.47-.38-.85-.76-1.14a6.7 6.7 0 0 0-3.38-1.57c-1.86-.15-3.54 1.08-4.8 2.48-.4.47-.7 1.71-1.34 1.63-.4-.14-.8-.31-1.2-.5-.4-.13-.82-.2-1.25-.19ZM158.66 129.35a3.1 3.1 0 0 0-.92-1.89c-.95-.87-2.38-.9-3.64-.71-.95.2-1.88.48-2.79.83-.91.26-1.18.47-.37 1.22.57.51 2.13 2.37 1.42 3.26-.71.88-1.9-1.38-2.36-1.76-.6-.59-1.4-.93-2.24-.96-.73.13-1.4.49-1.92 1.03-.55.49-1.08 1-1.57 1.55a.8.8 0 0 0-.19.28c-.1.41.45.65.87.71 1.2.22 2.53.84 2.77 2.04-1.23.3-2.39-.95-3.65-.81-.93.22-1.69.9-2.02 1.8-.34.8-.44 1.68-.3 2.53a6.73 6.73 0 0 1 3.31-.28c.14 0 .27.06.37.16.1.2.03.45-.16.56-.2.1-.41.13-.63.1h-2.05a.89.89 0 0 0-.57.14.81.81 0 0 0-.23.53c-.13.94-.14 1.9-.03 2.84.01.59.24 1.15.64 1.58.32.24.7.4 1.09.47 1.04.25 2.1.38 3.16.4a2.5 2.5 0 0 1-.31-2.3c.42-1 1.14-.42 1.18.49 0 .42-.08.84-.1 1.27 0 .08.01.16.05.23.04.06.1.1.16.13.56.3 1.22.4 1.84.24.18-.03.34-.1.49-.22.33-.4.44-.93.3-1.42l-.3-2.56a.4.4 0 0 1 .08-.35c.12-.13.35 0 .48.1.53.47.81 1.16.77 1.86 0 .41-.17.8-.2 1.2-.06.4.1.82.42 1.07.35.17.74.19 1.1.06.47-.07.9-.3 1.23-.65.28-.45.37-1 .24-1.5a9.52 9.52 0 0 1-.3-1.55c0-1.05 1.07-2.55 1.25-.7 0 .6-.03 1.2-.1 1.8a.54.54 0 0 0 0 .23c.1.13.24.2.4.2.83.07 1.67-.1 2.41-.47.52-.25.97-.62 1.32-1.07.26-.37.48-.77.66-1.19.85-1.82 2.22-3.25.63-5.2-.55-.67-1.56-.85-2.07-1.53-.6-.81.33-2.1.36-3.11.03-.23.03-.46.02-.68Z"/><path fill="#fff" d="M153.56 164.24h18.05l-1.42 13.6a4.04 4.04 0 0 1-4.02 3.63h-7.21a4.04 4.04 0 0 1-4.01-3.63l-1.39-13.6Z"/><path fill="#231F20" fill-rule="evenodd" d="M158.96 181.85h7.24a4.4 4.4 0 0 0 4.32-3.97l1.42-13.6a.34.34 0 0 0-.1-.28.35.35 0 0 0-.26-.12h-18.05c-.1 0-.2.04-.27.12a.39.39 0 0 0-.1.28l1.42 13.6a4.4 4.4 0 0 0 4.38 3.97Zm-3.65-4.04-1.35-13.2h17.24l-1.35 13.2a3.67 3.67 0 0 1-3.65 3.3h-7.24a3.67 3.67 0 0 1-3.65-3.3Z" clip-rule="evenodd"/><path fill="#231F20" d="M165.09 164.49c0-.13-1.42-13.15 4.95-23.64l.61.37c-6.23 10.28-4.85 23.05-4.83 23.18l-.73.09Z"/><path fill="#fff" d="M148.7 139.8a.36.36 0 0 1-.24-.1.35.35 0 0 1 0-.5c3.7-3.92 9.5-6.3 9.76-6.4.18-.08.38.01.46.2a.36.36 0 0 1-.2.46c-.06 0-5.92 2.41-9.51 6.21a.35.35 0 0 1-.27.13ZM151.19 157.9a.36.36 0 0 1-.31-.52 29.56 29.56 0 0 1 5.05-6.9.35.35 0 0 1 .5 0c.13.15.13.37 0 .5a29 29 0 0 0-4.92 6.72.36.36 0 0 1-.32.2ZM181.28 152.87a.37.37 0 0 1-.3-.16c-.17-.26-4.24-6.4-9.08-10.02a.36.36 0 0 1-.07-.5.36.36 0 0 1 .5-.06c4.82 3.65 8.8 9.53 9.24 10.18.1.17.06.39-.1.5a.32.32 0 0 1-.19.06ZM136.44 29.45h42.96v30.28h-42.96z"/><path fill="#D1D3D4" fill-rule="evenodd" d="M136.44 60.09h42.96c.2 0 .35-.16.35-.36V29.45c0-.2-.16-.36-.35-.36h-42.96c-.2 0-.35.16-.35.36v30.28c0 .2.16.36.35.36Zm42.6-.71H136.8V29.8h42.25v29.57Z" clip-rule="evenodd"/><path fill="#231F20" d="M164.17 88.48a.36.36 0 0 1-.35-.3l-1.75-11.34-3.04 1.35a.35.35 0 0 1-.47-.18.35.35 0 0 1 .19-.46l3.47-1.51c.1-.05.22-.05.31 0 .1.05.17.15.19.25l1.8 11.76a.35.35 0 0 1-.29.4l-.06.03Z"/><path fill="#fff" d="M170.17 100.65h-8.86l-.48-19.15h9.82l-.48 19.15Z"/><path fill="#231F20" fill-rule="evenodd" d="M161.31 101h8.86c.16-.01.3-.14.33-.3l.48-19.18c0-.2-.16-.36-.36-.37h-9.82c-.1 0-.19.04-.26.11a.36.36 0 0 0-.1.26l.52 19.14c0 .19.16.34.35.34Zm8.53-.71h-8.16l-.5-18.44h9.12l-.46 18.44Z" clip-rule="evenodd"/><path fill="#fff" d="M159.93 79.56h11.62v1.94h-11.62z"/><path fill="#231F20" fill-rule="evenodd" d="M159.93 81.86h11.62c.2 0 .35-.16.35-.36v-1.94c0-.2-.16-.35-.35-.35h-11.62c-.2 0-.35.16-.35.35v1.94c0 .2.15.36.35.36Zm11.27-.71h-10.92v-1.23h10.92v1.23Z" clip-rule="evenodd"/><path fill="#D1D3D4" fill-rule="evenodd" d="M161.76 91.82a4.24 4.24 0 0 0 4.17 2.37 4.09 4.09 0 0 0 3.89-4.27 4.23 4.23 0 0 0-7.38-2.86 4.28 4.28 0 0 0-.68 4.76Zm.66-3.5a3.54 3.54 0 0 1 3.51-1.91c1.85.1 3.28 1.69 3.18 3.55a3.53 3.53 0 0 1-6.17 2.36 3.56 3.56 0 0 1-.52-4ZM146.5 53.3c.82.28 1.69.43 2.55.44a10 10 0 0 0 5.47-1.95c1.74-1.13 2.5-2.25 2.34-3.41a4.02 4.02 0 0 0-1.04-1.86 3.18 3.18 0 0 1-.88-1.53c.02-.66.24-1.3.62-1.85 1.1-1.8 1.21-4.03.3-5.92-1.04-2-3.2-3.33-5.95-3.64a6.22 6.22 0 0 0-5.26 2.05 6.17 6.17 0 0 0-1.34 5.17c.05.29.12.58.2.88v.03c.29 1.16.55 2.26-.15 3-.33.3-.72.55-1.13.72-.62.23-1.16.65-1.56 1.19-.24.45-.33.98-.24 1.49a5.17 5.17 0 0 0 2.27 3.42l.71.44c.99.54 2.02.99 3.1 1.33Zm.23-.68a16.28 16.28 0 0 1-2.96-1.27v.03a7.56 7.56 0 0 1-.64-.42 4.53 4.53 0 0 1-1.99-2.92 1.6 1.6 0 0 1 .15-1.04c.33-.42.76-.74 1.26-.92.5-.2.94-.5 1.34-.88.97-1.03.62-2.45.32-3.69-.08-.29-.15-.57-.2-.84a5.46 5.46 0 0 1 1.18-4.57c1.17-1.32 2.9-2 4.65-1.82 2.5.3 4.47 1.48 5.39 3.26.81 1.7.7 3.71-.31 5.31a3.84 3.84 0 0 0-.67 2.22c.15.72.51 1.39 1.04 1.9.41.43.72.95.88 1.52.1.85-.54 1.74-2.02 2.7-2.09 1.34-4.43 2.45-7.42 1.43Z" clip-rule="evenodd"/><path fill="#D1D3D4" fill-rule="evenodd" d="M163.04 52.43c1.67.7 3.47 1.08 5.28 1.1a10 10 0 0 0 3.12-.43 6.82 6.82 0 0 0 4.47-4.54 4.89 4.89 0 0 0-1.17-4.66c-2.15-2.38-7.62-3.32-10.45-2.38a16 16 0 0 0-1.78.76c-.89.48-1.84.82-2.83.98-1.3.06-2.59-.14-3.8-.58-1.7-.48-3.45-.97-5.1-.26a4.36 4.36 0 0 0-2.37 4.58 8.04 8.04 0 0 0 1.94 4.1 5.78 5.78 0 0 0 5.06 2.2 8.54 8.54 0 0 0 2.47-.83 4.53 4.53 0 0 1 4.8-.18l.36.14Zm-2.38-1.46h-.17c-1 .08-1.99.37-2.88.85-.7.37-1.46.63-2.25.78-2.12.27-3.69-1.12-4.44-1.97a7.36 7.36 0 0 1-1.8-3.74 3.68 3.68 0 0 1 1.94-3.85c1.4-.62 2.95-.18 4.59.29h.01c1.3.47 2.7.68 4.08.61a9.68 9.68 0 0 0 3.02-1.07 15 15 0 0 1 1.7-.7c2.6-.88 7.77.03 9.7 2.17a4.22 4.22 0 0 1 1.02 4.01 6.11 6.11 0 0 1-4 4.03c-2.62.72-5.4.5-7.88-.62l-.34-.14a6.85 6.85 0 0 0-2.3-.65Z" clip-rule="evenodd"/><path fill="#D1D3D4" fill-rule="evenodd" d="M164.8 47.15a3.06 3.06 0 0 0 2.52 1.06l.44.01a8.98 8.98 0 0 0 5.16-1.77c2.85-2.31 1.94-4.6 1.14-5.75-2.26-3.25-9.18-5.54-12.91-3.34a5.69 5.69 0 0 0-2.62 3.78c-.25 1.2.04 2.45.78 3.42a3.64 3.64 0 0 0 2.67 1.28c.57.05 1.13.2 1.65.45.43.22.83.51 1.18.86Zm-3.3-9.22c1-.54 2.13-.8 3.27-.76 3.3 0 7.19 1.72 8.7 3.91 1.13 1.66.81 3.31-1 4.78a8.56 8.56 0 0 1-4.75 1.62c-.9.18-1.83-.14-2.43-.85a4.76 4.76 0 0 0-3.2-1.53c-.86-.01-1.66-.39-2.22-1.03a3.45 3.45 0 0 1-.64-2.84 4.97 4.97 0 0 1 2.28-3.3Z" clip-rule="evenodd"/><path fill="#231F20" d="M59.32 45.62s2.28-1.86 0-4.26h-3.69s.8 3.1 0 4.26h3.69Z"/><path fill="#231F20" fill-rule="evenodd" d="M55.63 45.98h3.69c.07 0 .14-.04.2-.08a3.38 3.38 0 0 0 1.14-2.2c.01-.98-.4-1.92-1.12-2.58a.39.39 0 0 0-.25-.11H55.6a.36.36 0 0 0-.28.14.4.4 0 0 0-.07.3c.22.82.63 3.13.06 3.97a.36.36 0 0 0 0 .36c.07.12.19.2.32.2Zm3.55-.71h-3a8.27 8.27 0 0 0-.13-3.55h3.09c.52.5.82 1.2.81 1.93a2.6 2.6 0 0 1-.77 1.62Z" clip-rule="evenodd"/><path fill="#fff" d="M57.31 44.21c.11-.84-.18-1.68-.8-2.26a5.6 5.6 0 0 0-.92-.95 5.89 5.89 0 0 0-2.19-.87c-1.72-.42-3.73.11-5.48.15a13.9 13.9 0 0 1-5.51-1.02 3.7 3.7 0 0 1-1.56-1.03c-.44 2.57-.39 5.42 1.1 7.58a9.83 9.83 0 0 0 4.95 3.44 7.95 7.95 0 0 0 7.94-1.16c1.01-.77 1.8-1.8 2.25-2.98.1-.29.18-.59.22-.9Z"/><path fill="#231F20" fill-rule="evenodd" d="M46.75 49.58c1.03.38 2.11.58 3.21.59a8.12 8.12 0 0 0 5.09-1.84 7.3 7.3 0 0 0 2.36-3.13c.12-.32.21-.64.27-.97a3 3 0 0 0-.88-2.55c-.29-.37-.62-.7-.98-1.01-.7-.46-1.5-.78-2.32-.92a10.93 10.93 0 0 0-3.76 0l-.24.02a13.86 13.86 0 0 1-6.98-.8 3.46 3.46 0 0 1-1.41-.92.35.35 0 0 0-.36-.12.36.36 0 0 0-.26.28c-.56 3.24-.18 5.88 1.14 7.82 1.3 1.69 3.08 2.93 5.12 3.55Zm-4.53-3.97c-1.14-1.69-1.5-3.89-1.14-6.66.36.27.74.5 1.15.67a14.6 14.6 0 0 0 5.66 1.04c.57-.01 1.17-.07 1.75-.13l.14-.02c1.17-.2 2.36-.2 3.54 0 .73.13 1.43.4 2.06.8.32.25.61.53.87.84.54.52.8 1.26.71 2a6.59 6.59 0 0 1-2.36 3.67 7.65 7.65 0 0 1-7.61 1.1 9.41 9.41 0 0 1-4.77-3.31Z" clip-rule="evenodd"/><path fill="#fff" d="M101 25.69h30.05v19.92H101z"/><path fill="#D1D3D4" fill-rule="evenodd" d="M101 45.98h30.05c.2 0 .35-.16.35-.36V25.68c0-.19-.16-.35-.35-.35H101c-.2 0-.35.16-.35.35v19.94c0 .2.16.36.35.36Zm29.72-.71h-29.4l.03-19.22h29.37v19.22Z" clip-rule="evenodd"/><path fill="#fff" d="M101 45.62h30.05v3.94H101z"/><path fill="#D1D3D4" fill-rule="evenodd" d="M101 49.92h30.05c.2 0 .35-.16.35-.36v-3.94c0-.2-.16-.35-.35-.35H101c-.2 0-.35.16-.35.35v3.95c0 .2.16.35.35.35Zm29.72-.71h-29.4l.03-3.23h29.37v3.23Z" clip-rule="evenodd"/><path fill="#D1D3D4" d="M104.44 40.98a.35.35 0 0 1-.33-.2.35.35 0 0 1 .05-.37c.34-.43 8.5-10.47 16.1-9.87 3.02.25 5.1 1.84 5.53 4.27a4.8 4.8 0 0 1-2.63 5.23c-2.12.98-4.09.97-5.46-.05a4.14 4.14 0 0 1-1.46-4.07 3.1 3.1 0 0 1 2.22-2.85 3.7 3.7 0 0 1 3.62 1.03c.43.48.53 1.17.24 1.74-.54 1.05-1.18 1.6-1.9 1.62-1.15 0-2-1.31-2.04-1.37a.36.36 0 0 1 .39-.53c.09.02.16.08.21.16.19.3.77 1.07 1.42 1.03.64-.03 1-.7 1.29-1.23a.84.84 0 0 0-.16-.97 2.97 2.97 0 0 0-2.88-.8 2.43 2.43 0 0 0-1.7 2.26 3.45 3.45 0 0 0 1.17 3.4c1.15.86 2.89.85 4.75 0a4.08 4.08 0 0 0 2.2-4.49c-.38-2.08-2.2-3.45-4.9-3.67-7.2-.6-15.38 9.5-15.45 9.6a.36.36 0 0 1-.28.13Z"/><path fill="#D1D3D4" fill-rule="evenodd" d="M104.6 64.14h11.57c.2 0 .36-.15.36-.35v-9.24c0-.2-.16-.35-.36-.35H104.6c-.19 0-.35.16-.35.35v9.24c0 .2.16.35.36.35Zm11.22-.7h-10.87V54.9h10.87v8.52Z" clip-rule="evenodd"/><path fill="#D1D3D4" d="M110.38 56.24a.35.35 0 0 1-.35-.36v-2.2c0-.2.16-.36.35-.36.2 0 .36.16.36.35v2.2a.35.35 0 0 1-.36.37Z"/><defs><linearGradient id="a" x1="0" x2="202" y1="202" y2="202" gradientUnits="userSpaceOnUse"><stop stop-color="#5D0202" stop-opacity=".01"/><stop offset="1" stop-color="#5D0202" stop-opacity=".5"/></linearGradient></defs></svg>