<svg xmlns="http://www.w3.org/2000/svg" width="184" height="24" fill="none"><g fill="#E7816B"><path d="M22.68 0H1.32C.6 0 0 .6 0 1.32v21.36C0 23.4.6 24 1.32 24h11.5v-9.3H9.69v-3.62h3.13V8.41c0-3.1 1.9-4.79 4.66-4.79 1.32 0 2.46.1 2.8.15V7h-1.92c-1.5 0-1.8.71-1.8 1.76v2.32h3.59l-.47 3.62h-3.12V24h6.12c.73 0 1.32-.6 1.32-1.32V1.32C24 .6 23.4 0 22.68 0Z"/><path fill-rule="evenodd" d="M172 0c-3.26 0-3.67.01-4.95.07-4.36.2-6.78 2.62-6.98 6.98A84.29 84.29 0 0 0 160 12c0 3.26.01 3.67.07 4.95.2 4.36 2.62 6.78 6.98 6.98 1.28.06 1.7.07 4.95.07 3.26 0 3.67-.01 4.95-.07 4.35-.2 6.78-2.62 6.98-6.98.06-1.28.07-1.7.07-4.95 0-3.26-.01-3.67-.07-4.95-.2-4.35-2.62-6.78-6.98-6.98A84.33 84.33 0 0 0 172 0Zm0 2.16c3.2 0 3.58.01 4.85.07 3.25.15 4.77 1.7 4.92 4.92.06 1.27.07 1.65.07 4.85 0 3.2-.01 3.59-.07 4.85-.15 3.22-1.67 4.77-4.92 4.92-1.27.06-1.64.07-4.85.07a83 83 0 0 1-4.85-.07c-3.26-.15-4.77-1.7-4.92-4.92a82.98 82.98 0 0 1-.07-4.85 84 84 0 0 1 .07-4.85c.15-3.23 1.67-4.77 4.92-4.92a84.4 84.4 0 0 1 4.85-.07ZM165.84 12a6.16 6.16 0 1 1 12.32 0 6.16 6.16 0 0 1-12.32 0Zm6.16 4a4 4 0 1 1 0-8 4 4 0 0 1 0 8Zm4.97-10.4a1.44 1.44 0 1 1 2.88 0 1.44 1.44 0 0 1-2.88 0Z" clip-rule="evenodd"/><path d="M132 0a12 12 0 0 0-4.37 23.17c-.1-.95-.2-2.4.04-3.44l1.4-5.96s-.35-.72-.35-1.78c0-1.67.96-2.92 2.17-2.92 1.02 0 1.52.77 1.52 1.7 0 1.02-.66 2.56-1 3.99-.28 1.2.6 2.17 1.78 2.17 2.13 0 3.77-2.25 3.77-5.5 0-2.87-2.06-4.88-5.01-4.88a5.2 5.2 0 0 0-5.42 5.2c0 1.04.4 2.14.9 2.74.1.12.1.23.08.35l-.34 1.36c-.05.22-.17.27-.4.16-1.5-.7-2.43-2.89-2.43-4.65 0-3.78 2.75-7.26 7.92-7.26 4.17 0 7.4 2.97 7.4 6.93 0 4.14-2.6 7.46-6.22 7.46-1.22 0-2.36-.63-2.75-1.37l-.75 2.85c-.27 1.04-1 2.35-1.5 3.14A12.03 12.03 0 0 0 144 12a12 12 0 0 0-12-12ZM104 4.56c-.88.39-1.83.65-2.83.77a4.93 4.93 0 0 0 2.17-2.72c-.95.56-2 .97-3.13 1.2a4.92 4.92 0 0 0-8.4 4.48c-4.08-.2-7.71-2.16-10.14-5.14a4.93 4.93 0 0 0 1.52 6.57 4.9 4.9 0 0 1-2.22-.61A4.93 4.93 0 0 0 84.9 14c-.69.19-1.45.23-2.22.08a4.93 4.93 0 0 0 4.6 3.42A9.9 9.9 0 0 1 80 19.54a13.94 13.94 0 0 0 7.55 2.21c9.14 0 14.3-7.72 14-14.64.95-.7 1.79-1.57 2.45-2.55Z"/><path fill-rule="evenodd" d="M52 0a12 12 0 1 0 0 24 12 12 0 0 0 0-24Zm4.44 16.9c-2.1.14-6.78.14-8.88 0-2.28-.16-2.54-1.28-2.56-4.9.02-3.63.28-4.74 2.56-4.9 2.1-.14 6.78-.14 8.88 0 2.28.16 2.54 1.28 2.56 4.9-.02 3.63-.28 4.74-2.56 4.9ZM54.92 12 50 9.66v4.68L54.92 12Z" clip-rule="evenodd"/></g></svg>